<svg width="230" height="242" viewBox="0 0 230 242" fill="none" xmlns="http://www.w3.org/2000/svg">
<g filter="url(#filter0_d_73_243)">
<path d="M176.978 185.169C203.568 166.867 221 136.22 221 101.5C221 45.4431 175.557 0 119.5 0C63.4431 0 18 45.4431 18 101.5C18 136.22 35.4324 166.867 62.022 185.169C49.0651 186.646 39 197.648 39 211C39 225.359 50.6406 237 65 237H174C188.359 237 200 225.359 200 211C200 197.648 189.935 186.646 176.978 185.169Z" fill="#FAFAFA"/>
<circle cx="119.5" cy="101.5" r="101.5" fill="#FAFAFA"/>
<circle cx="119" cy="99" r="87" fill="#E6E5D8"/>
<circle cx="119" cy="99" r="79" fill="url(#paint0_linear_73_243)"/>
<rect x="39" y="185" width="161" height="52" rx="26" fill="#FAFAFA"/>
<path d="M80.7393 196.947L79.0322 224.186L70.5713 224.557L70.6455 210.195L66.8232 221.773H63.5576L60.626 211.42L60.5889 223.443L52.0166 223.703L52.3877 198.061L61.9248 197.689L65.71 209.973L70.7568 196.947H80.7393ZM105.176 222.404L95.9727 223.592L94.8594 219.398H90.6289L89.7012 223.592L80.2383 222.664L87.623 197.949L97.9395 197.43L105.176 222.404ZM94.1914 213.721L92.7812 207.264L91.4082 213.721H94.1914Z" fill="#E45993"/>
<path d="M122.988 197.467L122.803 205.334L117.273 205.557L115.863 223.146L108.033 223.555L108.07 205.965L102.541 206.262L102.764 197.504L122.988 197.467ZM134.028 197.875L131.987 223.146L124.157 223.555V198.395L134.028 197.875Z" fill="#4AC92B"/>
<path d="M164.013 196.947L162.306 224.186L153.845 224.557L153.919 210.195L150.097 221.773H146.831L143.899 211.42L143.862 223.443L135.29 223.703L135.661 198.061L145.198 197.689L148.983 209.973L154.03 196.947H164.013ZM188.449 222.404L179.246 223.592L178.133 219.398H173.902L172.975 223.592L163.512 222.664L170.896 197.949L181.213 197.43L188.449 222.404ZM177.465 213.721L176.055 207.264L174.682 213.721H177.465Z" fill="#2999D1"/>
<ellipse cx="119.5" cy="186" rx="34.5" ry="4" fill="#8391AD"/>
<path d="M177 72C172.5 106.5 151.5 111.5 147 136.5C133.873 143.588 104.5 142 92.5 138.5C90 134.5 89 125.5 82 113.5C70.5 102 63.7142 93.1421 62 72C62 41.6244 87.7436 17 119.5 17C151.256 17 177 41.6244 177 72Z" fill="#ED6F01"/>
<path d="M138.473 113.013C151.647 100.56 162.579 90.2252 166 64C166 48.5048 159.301 34.5062 148.522 24.5095C140.003 19.7362 130.086 17 119.5 17C87.7436 17 62 41.6244 62 72C63.7142 93.1421 70.5 102 82 113.5C86.3151 120.897 88.3502 127.155 89.8621 131.803C89.8992 131.917 89.9359 132.03 89.9724 132.142C101.671 133.486 116.402 131.933 125.5 126C129.937 121.083 134.317 116.943 138.473 113.013Z" fill="#FE9C07"/>
<path d="M151 66.5C132 83 142.681 119.5 117 119.5C91.3188 119.5 66 92.7335 66 66.5C66 40.2665 86.8188 19 112.5 19C156.5 19 158 45.5 151 66.5Z" fill="#FBCF4D"/>
<path d="M74.371 105.152C71.5532 97.8559 70 89.8701 70 81.5C70 47.5141 95.6075 19.8639 127.498 19.0199C124.102 18.3508 120.592 18 117 18C87.1766 18 63 42.1766 63 72C63 84.4964 67.2447 96.0013 74.371 105.152Z" fill="#FEF8D6"/>
<circle cx="98.4999" cy="73.5" r="10.5" fill="#FAFAFA"/>
<ellipse cx="141" cy="74.5" rx="10" ry="9.5" fill="#FAFAFA"/>
<rect x="103" y="90" width="33" height="10" fill="#FAFAFA"/>
<rect x="110" y="104" width="20" height="10" fill="#D73338"/>
<path d="M94.9758 140L120.76 142.581L149 140V167.535L115.235 177C115.235 177 99.8871 172.267 94.9758 167.535C90.0645 162.802 90.6416 153.917 92.5201 153.767C94.3986 153.618 86.5734 144.415 94.9758 140Z" fill="#FDFEF8"/>
<path d="M97 140L118 143L141 140V172L113.5 183C113.5 183 101 177.5 97 172C92.9999 166.5 93.47 156.174 95 156C96.5299 155.826 90.1566 145.13 97 140Z" fill="url(#paint1_linear_73_243)"/>
<path d="M49.5 100C49.5 106.904 44.1797 112 37 112C29.8203 112 24 106.404 24 99.5C24 92.5965 28 88 39 86C47 89 49.5 89 49.5 100Z" fill="#B7C5E1"/>
<path d="M42.5117 92.8748C45.5 88.7541 47.7934 88.8999 48 91C44.5 96 46.5 106.5 40.5 106.5C36.3421 110.015 28 106 25 100.5C24.0595 98.7757 23.3508 95.4619 28.6027 88.7541C34 88.7541 37.3037 84.0376 40.5 86.5C41.6416 87.3796 41.0397 94.9047 42.5117 92.8748Z" fill="#FAFAFA"/>
<path d="M214 98.5C214 104.851 205.299 112 199.5 112C193.701 112 187 107 188 98.5C188 92.1487 185.701 88 191.5 88C195 88 195.556 85.4539 198.5 85.5C201.457 85.5463 202.5 89 207 89C212.288 90.8391 214 95.1263 214 98.5Z" fill="#B7C5E1"/>
<path d="M211 96.3021C211 101.335 203.434 107 198.391 107C193.348 107 187.521 103.038 188.391 96.3021C188.391 91.2692 186.392 87.9816 191.435 87.9816C194.478 87.9816 194.961 85.964 197.522 86.0005C200.093 86.0372 201 88.774 204.913 88.774C209.511 90.2314 211 93.6287 211 96.3021Z" fill="#FAFAFA"/>
<rect x="34.5077" y="115.938" width="18.8669" height="6" transform="rotate(-26.8607 34.5077 115.938)" fill="url(#paint2_linear_73_243)"/>
<rect x="186.87" y="105.842" width="18.8669" height="6" transform="rotate(28.1592 186.87 105.842)" fill="url(#paint3_linear_73_243)"/>
<path d="M115.7 187.767C112.028 187.173 108.416 185.247 105.638 182.401C104.31 181.04 103.034 179.927 102.802 179.927C101.757 179.927 98.4342 176.412 97.3138 174.122C96.3212 172.093 95.7559 171.49 94.4343 171.054C92.2244 170.324 89.2373 167.556 88.1983 165.274C87.0455 162.742 87.0806 158.427 88.2755 155.793L89.1999 153.755L87.9735 151.248C86.8829 149.019 86.7706 148.337 86.9586 145.087C87.111 142.455 87.4531 140.954 88.1822 139.718L89.1942 138.002L87.9945 134.426C86.5306 130.063 84.0775 124.106 83.7446 124.106C83.6105 124.106 82.0121 125.586 80.1924 127.395C74.243 133.311 69.4479 135.834 62.3517 136.784C55.1196 137.752 47.8533 135.27 42.6085 130.04C41.1313 128.567 39.1743 126.192 38.2594 124.761C37.3447 123.331 36.1626 121.708 35.6326 121.156C34.2535 119.719 33.3833 117.449 33.3833 115.29C33.3833 113.514 33.268 113.364 31.0412 112.235C27.5517 110.466 25.1808 108.072 23.5079 104.627C22.2254 101.986 22.0095 101.033 22.0001 97.9752C21.9878 94.1354 22.8033 92.2847 24.9323 91.3167C25.4878 91.0641 25.9422 90.4724 25.9422 90.0017C25.9422 89.531 26.554 88.5339 27.3017 87.7861C28.353 86.7344 29.0845 86.4263 30.5296 86.4263C31.5574 86.4263 32.5276 86.6357 32.6857 86.8915C33.1559 87.6525 33.6668 87.4274 34.2186 86.2161C34.5043 85.5888 35.409 84.7285 36.229 84.3044C38.3898 83.1867 41.0504 84.0328 42.0646 86.1602C42.7692 87.6381 42.8552 87.678 44.022 87.069C45.8629 86.1082 47.6987 86.2825 48.9532 87.5373C50.4193 89.0037 50.8245 91.4344 50.1634 94.7959C49.7562 96.866 49.7548 98.2887 50.1581 100.603C50.4516 102.288 50.584 104.08 50.4524 104.583C50.2817 105.236 50.4471 105.499 51.0276 105.499C51.4755 105.499 52.1724 105.865 52.5762 106.313C53.4 107.226 55.4832 112.024 55.914 114C56.3125 115.828 59.1862 118.837 61.1535 119.486C64.7416 120.671 72.8489 118.494 76.6399 115.329L78.2268 114.003L74.693 109.635C67.1237 100.277 62.5816 91.3463 61.2506 83.2043C61.0175 81.7783 60.7191 80.0883 60.5874 79.4487C59.845 75.8414 59.8299 70.0134 60.5498 65.0282C61.7985 56.3823 64.5664 49.1323 69.472 41.6579C72.3707 37.2413 80.0938 29.5324 84.7299 26.428C95.1058 19.4801 107.489 15.7194 119.99 15.7194C122.49 15.7194 124.536 15.6074 124.536 15.4704C124.536 14.8241 122.911 12.8636 121.455 11.7524C119.889 10.5579 119.789 10.5423 118.28 11.2584C114.18 13.2047 110.119 11.2655 110.119 7.36084C110.119 3.24675 114.345 1.74075 119.099 4.16064C121.767 5.51907 126.343 10.292 127.985 13.4304L129.34 16.0216L132.456 16.556C143.853 18.5108 154.481 24.1231 162.982 32.6762C172.539 42.2916 177.671 52.9443 179.016 65.9585C180.684 82.1111 175.985 95.6734 163.406 111.011C160.188 114.934 160.093 114.608 165.229 117.235C170.261 119.809 174.943 120.572 177.521 119.238C179.417 118.257 181.169 115.99 181.773 113.735C182.925 109.435 184.612 105.961 185.678 105.693C186.635 105.453 186.742 105.083 187.004 101.091C187.165 98.6437 187.071 95.5113 186.789 93.912C186.2 90.5667 186.487 89.0777 188.015 87.5492C189.298 86.2661 191.732 86.0422 193.147 87.0771C193.95 87.6641 194.116 87.5981 194.842 86.4047C196.079 84.3692 197.735 83.4789 199.623 83.8332C201.199 84.1289 203.132 86.0853 203.132 87.3843C203.132 87.7813 203.402 87.7215 203.982 87.1962C205.967 85.3993 210.079 86.94 210.821 89.7592C210.979 90.3567 211.764 91.2642 212.565 91.7759C214.587 93.0665 215.418 95.9597 214.8 99.562C213.86 105.04 211.18 109.128 206.943 111.546C204.179 113.123 204.089 113.234 204.076 115.094C204.06 117.307 203.165 119.693 201.632 121.607C201.044 122.342 199.751 124.153 198.758 125.631C191.026 137.152 176.075 140.37 164.636 132.975C163.067 131.961 160.281 129.655 158.445 127.851C156.609 126.047 155.056 124.571 154.993 124.571C154.732 124.571 152.776 129.535 151.505 133.424L150.137 137.611L151.172 139.58C151.935 141.032 152.25 142.556 152.371 145.374C152.517 148.791 152.406 149.428 151.335 151.345L150.136 153.491L151.062 155.306C151.571 156.305 152.117 158.355 152.274 159.861C152.811 164.996 149.759 169.287 144.285 171.094C143.207 171.45 142.711 171.946 142.529 172.851C142.152 174.729 139.954 177.336 137.278 179.079C135.973 179.929 134.574 181.195 134.168 181.891C131.827 185.909 122.52 188.871 115.7 187.767ZM119.266 174.797C114.733 174.783 107.474 174.18 105.352 173.639C104.53 173.43 104.073 173.498 104.073 173.829C104.073 174.113 104.492 174.345 105.003 174.345C105.515 174.345 105.933 174.577 105.933 174.86C105.933 175.179 105.486 175.264 104.759 175.081C103.673 174.809 103.63 174.858 104.177 175.734C105.156 177.302 111.707 179.415 115.002 179.224C122.012 180.627 147.577 170.4 119.266 174.797ZM121.451 170.042C121.214 169.647 121.354 169.665 121.889 170.099C122.618 170.691 122.843 170.606 122.559 169.848C122.495 169.678 123.815 169.261 125.491 168.922C127.168 168.583 130.203 167.833 132.235 167.255C135.327 166.376 135.954 166.034 136.078 165.158C136.256 163.908 136.759 163.917 129.884 165.051C124.638 165.916 114.714 166.337 115.385 165.666C115.554 165.497 115.466 165.088 115.19 164.756C114.231 163.599 115.229 163.073 117.775 163.391C120.25 163.7 125.906 162.972 132.326 161.518C135.054 160.9 135.697 160.586 135.697 159.874C135.697 159.39 135.383 158.994 135 158.994C134.616 158.994 134.302 159.151 134.302 159.343C134.302 159.737 133.292 159.778 120.466 159.899C110.781 159.99 104.575 159.265 96.743 157.125C92.4476 155.952 92.2401 155.963 91.5909 157.388C90.3612 160.087 91.6322 165.112 93.9246 166.614C96.3927 168.232 109.85 170.471 117.704 170.571C120.867 170.612 121.451 170.042 121.451 170.042ZM146.036 165.987C147.794 164.604 148.418 162.633 148.124 159.389C147.847 156.335 147.423 155.55 146.288 155.986C145.756 156.19 145.502 157.156 145.336 159.606C145.119 162.799 144.919 164.023 144.289 166.009C143.926 167.153 144.564 167.145 146.036 165.987ZM125.031 154.999C123.88 154.483 124.463 154.34 130.373 153.688C130.897 153.63 131.525 153.472 131.768 153.337C132.011 153.201 133.203 152.822 134.418 152.494C136.021 152.06 136.627 151.665 136.627 151.054C136.627 150.59 136.47 150.118 136.279 150.003C136.087 149.888 133.942 150.083 131.512 150.435C129.082 150.786 124.582 151.053 121.513 151.027C118.443 151.001 114.99 150.975 113.839 150.97C112.504 150.963 112.224 150.886 113.067 150.756C114.278 150.569 114.318 150.502 113.557 149.945C112.832 149.415 113.075 149.306 115.493 149.077C117.013 148.933 119.766 148.814 121.609 148.813C127.805 148.807 135.697 146.912 135.697 145.431C135.697 144.732 135.454 144.652 134.186 144.935C133.355 145.12 127.233 145.267 120.583 145.26C107.776 145.247 102.227 144.605 94.7315 142.272C92.8702 141.692 91.6014 141.512 91.3258 141.788C91.0842 142.029 90.8793 143.54 90.8705 145.145C90.8515 148.591 91.8152 150.737 93.8568 151.793C93.6341 154.36 134.469 159.475 125.031 154.999ZM147.05 150.584C147.712 149.797 148.383 148.642 148.539 148.017C148.992 146.214 148.278 141.762 147.488 141.459C146.384 141.035 146.057 141.789 145.748 145.478C145.588 147.383 145.302 149.057 145.112 149.199C144.922 149.341 144.727 150.033 144.678 150.736C144.561 152.45 145.533 152.388 147.05 150.584ZM143.603 138.293C145.412 137.78 146.202 136.695 147.326 133.176C149.224 127.235 152.93 119.082 155.787 114.56C156.431 113.541 158.621 110.615 160.654 108.056C166.671 100.485 170.016 94.9252 172.388 88.5564C185.592 60.1283 163.214 29.934 138.254 22.3486C131.129 20.268 130.074 20.1375 120.582 20.1612C112.135 20.1823 110.83 20.297 106.377 21.4084C94.8169 24.2935 86.9422 28.6229 79.3285 36.2789C65.3743 50.3105 60.757 68.6203 66.4715 87.2631C68.219 92.9641 73.7368 102.492 78.2446 107.591C82.7135 112.647 86.9718 120.483 91.0106 131.083C93.939 137.918 92.789 137.53 98.2585 139.212C111.187 142.191 130.85 141.662 143.603 138.293ZM114.444 116.261C106.783 113.614 100.879 104.721 100.656 95.4953C100.596 93.0151 100.751 92.3763 101.648 91.4198C103.632 89.3011 105.124 89.1318 120.353 89.2962C133.431 89.4374 134.651 89.5199 136.033 90.3559C138.531 91.8677 139.061 94.8669 137.785 100.28C136.369 106.29 132.717 112.058 128.76 114.536C124.588 117.148 118.969 117.825 114.444 116.261ZM123.838 112.888C124.861 112.606 126.536 111.756 127.559 111C129.233 109.762 127.798 111 129 109.5C128.292 108.5 128.5 109.309 128.5 109C121.868 101.283 111.172 104.079 111 108.056C110.5 108.5 110.69 108.357 110.5 108.5C109.5 109.253 110.153 109.351 111.787 110.916C112.696 111.773 114 112.597 114.686 112.748C115.371 112.899 116.141 113.092 116.397 113.177C117.487 113.541 122.124 113.361 123.838 112.888ZM130.19 97.1091C131.126 96.7903 132.487 96.0495 133.213 95.4629C134.303 94.5832 134.445 94.2481 134.025 93.5509C133.027 91.8957 130.765 91.5961 119.056 91.5689C110.089 91.548 107.424 91.6846 106.115 92.2316C104.969 92.7105 104.513 93.1716 104.618 93.7435C104.799 94.7216 108.376 96.5824 111.697 97.4265C114.66 98.1793 127.706 97.9554 130.19 97.1091ZM138.255 83.7904C133.501 81.2776 131.959 75.7724 134.799 71.4437C138.751 65.4175 148.849 68.0282 149.544 75.2558C149.824 78.1729 149.479 79.4919 147.963 81.2933C145.449 84.2813 141.235 85.3653 138.255 83.7904ZM137.93 75.1684C138.795 74.3025 138.589 72.7576 137.519 72.089C136.706 71.5815 136.368 71.6027 135.426 72.2203C133.583 73.4283 134.218 75.7265 136.395 75.7265C136.932 75.7265 137.623 75.4754 137.93 75.1684ZM95.8294 82.6609C92.8806 81.2009 90.8707 77.0982 91.7488 74.3311L92.0696 73.3199L92.7494 74.2906C94.0062 76.0855 96.6319 75.2745 96.6319 73.0915C96.6319 71.95 95.4205 71.0749 93.8405 71.0749H92.8481L93.8466 69.6723C96.9384 65.3292 104.607 65.8656 107.274 70.6115C108.469 72.7391 108.587 76.5226 107.527 78.7567C106.772 80.3468 104.364 82.2812 102.066 83.1434C100.066 83.8937 97.9958 83.7335 95.8294 82.6609ZM89.674 59.0139C88.7026 57.1983 92.8195 53.8731 98.0784 52.2258C100.394 51.5004 100.917 51.4811 102.729 52.0544C104.544 52.6286 104.771 52.8553 104.771 54.0958C104.771 55.4756 104.736 55.4944 101.748 55.7614C97.9237 56.1031 97.0011 56.4013 93.7807 58.3367C90.7471 60.1599 90.3245 60.2297 89.674 59.0139ZM143.603 56.3246C142.197 55.1458 139.724 53.5786 138.11 52.8419C135.454 51.6304 135.188 51.3819 135.319 50.241C135.44 49.1979 135.724 48.9546 136.961 48.835C139.011 48.6368 142.177 50.1308 144.767 52.5192C147.409 54.9545 148.347 56.6039 147.725 57.7161C147.061 58.9027 146.423 58.6872 143.603 56.3246ZM181.246 125.036C182.156 124.563 183.738 123.303 184.762 122.235C185.785 121.168 187.133 119.783 187.757 119.157C188.516 118.397 188.632 118.119 188.106 118.321C187.572 118.526 187.319 118.387 187.319 117.89C187.319 117.391 187.06 117.25 186.506 117.449C186.058 117.61 185.841 117.576 186.024 117.374C186.207 117.171 186.139 116.599 185.873 116.101C185.438 115.288 185.191 115.492 183.43 118.121C180.743 122.133 178.24 123.433 173.378 123.343C170.99 123.299 170.212 123.404 170.926 123.677C171.501 123.896 171.972 124.274 171.972 124.517C171.972 125.296 175.84 126.373 177.758 126.129C178.765 126 180.335 125.508 181.246 125.036ZM64.6496 125.204C65.6037 125.046 66.2825 124.753 66.1581 124.551C66.0337 124.35 66.8227 123.886 67.9114 123.521C69.8818 122.861 69.8734 122.859 66.052 123.076C60.7714 123.377 58.5763 122.691 55.9982 119.935C54.8693 118.727 53.5755 117.026 53.1233 116.155C52.671 115.283 52.2126 114.831 52.1046 115.151C51.9967 115.471 51.6564 115.733 51.3484 115.733C51.0405 115.733 50.757 116.151 50.7185 116.663C50.68 117.175 50.8447 117.593 51.0846 117.593C51.3245 117.593 51.5208 117.907 51.5208 118.291C51.5208 118.675 51.6781 118.989 51.8704 118.989C52.0626 118.989 52.7173 119.927 53.3252 121.073C53.9331 122.219 54.6128 123.044 54.8358 122.906C55.0588 122.768 55.2413 122.854 55.2413 123.096C55.2413 123.339 56.1307 123.969 57.2178 124.496C59.2501 125.482 61.6099 125.707 64.6496 125.204ZM39.2198 118.58C39.4628 118.355 42.4432 116.749 45.8428 115.011C50.6794 112.539 51.9578 111.692 51.7196 111.117C51.5523 110.713 51.3099 110.017 51.1812 109.569C51.0525 109.121 50.6706 108.755 50.3325 108.755C49.6596 108.755 36.7588 114.062 36.2887 114.532C35.9318 114.889 37.8739 118.989 38.3999 118.989C38.6078 118.989 38.9768 118.805 39.2198 118.58ZM200.725 115.205C200.602 114.372 199.39 113.664 194.314 111.466C190.871 109.975 187.774 108.755 187.432 108.755C187.09 108.755 186.524 109.434 186.175 110.265L185.54 111.774L192.359 115.279L199.179 118.784L200.027 117.508C200.494 116.807 200.808 115.77 200.725 115.205ZM43.3753 108.651L47.3352 106.687V102.867C47.3352 100.766 47.1151 98.4678 46.8461 97.7601C46.4974 96.8427 46.5113 95.8305 46.8944 94.2328C47.4953 91.7277 47.1854 89.6826 46.205 89.6826C45.3462 89.6826 43.291 92.1669 42.4065 94.2743C42.0167 95.2028 41.5536 97.0798 41.3773 98.4454L41.0568 100.928L39.9309 99.9501C39.3117 99.412 38.0196 98.8461 37.0595 98.6926C36.0442 98.5301 35.3937 98.1926 35.5046 97.8857C35.7656 97.1632 31.948 90.1362 30.9544 89.5104C30.3666 89.1401 30.0028 89.1564 29.5878 89.5715C29.1436 90.0158 29.242 90.6678 30.0455 92.607C31.8384 96.9338 32.0039 97.8973 31.0954 98.7197C30.6508 99.1221 30.0943 99.4401 29.8586 99.4263C29.623 99.4123 28.8215 98.1566 28.0776 96.6353C27.3337 95.1139 26.5444 93.8692 26.3237 93.8692C26.1029 93.8692 25.6774 94.4068 25.3781 95.0638C24.2455 97.5501 26.4326 104.98 29.0102 107.402C30.9159 109.192 34.3864 110.586 36.9806 110.601C38.9254 110.613 40.2124 110.22 43.3753 108.651ZM203.979 109.683C208.72 107.531 210.628 104.829 211.534 98.9862C211.991 96.0388 211.959 95.5611 211.249 94.7763C210.201 93.6179 209.814 93.9198 208.481 96.9356C207.314 99.5738 206.308 100.111 205.469 98.5433C205.096 97.8465 205.259 96.9026 206.169 94.4845C208.393 88.5731 206.768 87.5477 203.713 92.9346C202.626 94.8512 201.736 97.0192 201.736 97.7525C201.736 98.7499 201.56 99.0179 201.035 98.8164C200.111 98.4619 198.045 99.2684 196.737 100.494L195.691 101.474V99.7534C195.691 96.6167 192.373 89.2175 190.967 89.2175C189.991 89.2175 189.544 91.4341 190.047 93.7804C190.412 95.483 190.405 97.1222 190.022 99.7653C189.731 101.767 189.641 104.187 189.821 105.143C190.128 106.766 190.4 107.002 193.966 108.744C198.365 110.891 200.812 111.12 203.979 109.683ZM39.6868 94.4919C40.0833 90.7888 39.7352 87.9287 38.7705 86.9638C37.6626 85.8556 36.8706 86.9726 36.9107 89.5866C36.9355 91.203 37.3898 97.0676 37.5544 97.896C37.5632 97.9361 37.9729 97.8629 38.4669 97.7339C39.1909 97.5445 39.4272 96.9163 39.6868 94.4919ZM199.697 95.7563C199.741 94.8753 199.91 92.9706 200.074 91.5236C200.564 87.1922 198.761 84.5493 197.596 87.8913C197.018 89.5506 196.96 91.5927 197.39 95.172C197.649 97.3278 197.807 97.6201 198.652 97.4978C199.397 97.3901 199.637 96.9914 199.697 95.7563ZM116.051 7.69513C115.756 6.80052 113.839 6.67166 113.839 7.54657C113.839 8.02153 114.259 8.27669 115.041 8.27669C115.794 8.27669 116.171 8.05967 116.051 7.69513Z" fill="#143D46"/>
<path d="M52 115L40 121.5C53.6 142.7 73 130.333 81 121.5L77.5 117.5C62.7 129.1 54.3333 120.667 52 115Z" fill="url(#paint4_linear_73_243)"/>
<path d="M197 121L185.5 114.5C179.5 128.1 166 121.833 160 117L156.5 122.5C173.5 143.5 197 129 197 121Z" fill="url(#paint5_linear_73_243)"/>
<circle cx="89" cy="90" r="5" fill="#FA5A59"/>
<circle cx="149" cy="90" r="5" fill="#FA5A59"/>
<circle cx="85" cy="47" r="4" fill="#FEF8D6"/>
<rect y="58.3412" width="53" height="19.3294" rx="9.66471" fill="#FAFAFA"/>
<ellipse cx="24.6294" cy="58.653" rx="15.9" ry="14.6529" fill="#FAFAFA"/>
<ellipse cx="11.2588" cy="13.9882" rx="11.2588" ry="13.9882" transform="matrix(-1 0 0 1 202.024 11.7765)" fill="#FAFAFA"/>
<ellipse cx="15.3529" cy="16.7176" rx="15.3529" ry="16.7176" transform="matrix(-1 0 0 1 222.494 7)" fill="#FAFAFA"/>
<rect width="58" height="14" rx="7" transform="matrix(-1 0 0 1 230 30)" fill="#FAFAFA"/>
<circle cx="43.5" cy="11.5" r="11.5" fill="#FAFAFA"/>
<mask id="path-36-outside-1_73_243" maskUnits="userSpaceOnUse" x="54.4342" y="106.665" width="130.667" height="65.7202" fill="black">
<rect fill="white" x="54.4342" y="106.665" width="130.667" height="65.7202"/>
<path d="M90.6111 135.612C90.7273 137.275 90.5371 138.886 90.0405 140.445C89.5425 141.984 88.8412 143.453 87.9366 144.853C87.0514 146.23 86.0141 147.525 84.8249 148.736C83.655 149.924 82.457 151.01 81.2309 151.994L91.0819 151.305L91.2405 164.326L61.992 165.369L61.1986 154.021C62.2739 153.57 63.3961 153.043 64.5651 152.439C65.7535 151.813 66.9056 151.116 68.0215 150.349C69.1582 149.58 70.2163 148.734 71.1958 147.809C72.1961 146.883 73.0563 145.893 73.7763 144.84C74.5156 143.765 75.0724 142.62 75.4468 141.403C75.842 140.185 75.9916 138.89 75.8957 137.519C75.8405 136.729 75.6463 136.043 75.3132 135.46C75.0009 134.877 74.5815 134.405 74.0551 134.045C73.5273 133.664 72.9243 133.403 72.2462 133.263C71.5874 133.1 70.8839 133.045 70.1357 133.097C69.5122 133.141 68.8835 133.258 68.2494 133.448C67.6138 133.618 66.993 133.849 66.387 134.142C65.781 134.435 65.2105 134.789 64.6755 135.202C64.1598 135.593 63.6998 136.032 63.2953 136.52L59.6975 124.492C60.4127 123.669 61.2509 122.963 62.2121 122.374C63.1734 121.784 64.1938 121.295 65.2735 120.907C66.3517 120.497 67.4573 120.18 68.5901 119.954C69.723 119.729 70.8402 119.577 71.9417 119.5C74.394 119.329 76.7113 119.616 78.8937 120.361C81.0745 121.086 82.9988 122.173 84.6665 123.623C86.3535 125.05 87.7179 126.793 88.7598 128.85C89.8225 130.906 90.4396 133.16 90.6111 135.612ZM115.303 156.315L114.669 148.152L106.867 148.573L106.089 139.229L113.865 138.435L113.35 131.078L122.944 129.404L123.623 137.314L131.773 136.493L132.643 147.146L124.467 147.592L125.163 155.751L115.303 156.315ZM179.351 143.128C179.545 145.892 179.266 148.324 178.515 150.423C177.783 152.5 176.674 154.269 175.189 155.73C173.703 157.171 171.881 158.301 169.725 159.12C167.588 159.917 165.21 160.407 162.591 160.59C161.407 160.673 160.183 160.643 158.92 160.502C157.657 160.36 156.399 160.135 155.145 159.826C153.891 159.517 152.663 159.133 151.462 158.674C150.281 158.213 149.17 157.706 148.129 157.153L148.437 144.538C149.265 145.023 150.184 145.481 151.196 145.911C152.206 146.321 153.244 146.687 154.311 147.009C155.397 147.309 156.478 147.536 157.554 147.691C158.651 147.844 159.698 147.886 160.696 147.816C161.277 147.775 161.867 147.692 162.464 147.567C163.08 147.419 163.629 147.203 164.11 146.919C164.591 146.635 164.972 146.253 165.252 145.774C165.552 145.294 165.677 144.69 165.626 143.962C165.594 143.505 165.357 143.094 164.913 142.728C164.47 142.362 163.948 142.064 163.347 141.835C162.745 141.585 162.127 141.409 161.493 141.307C160.858 141.184 160.333 141.137 159.917 141.166C159.626 141.187 159.275 141.232 158.862 141.303C158.468 141.351 158.066 141.421 157.655 141.513C157.243 141.604 156.845 141.726 156.459 141.878C156.092 142.008 155.81 142.164 155.614 142.344L155.178 133.416C155.534 133.432 155.869 133.44 156.182 133.439C156.495 133.438 156.828 133.426 157.181 133.401C157.909 133.35 158.694 133.232 159.538 133.048C160.379 132.843 161.153 132.549 161.857 132.165C162.559 131.761 163.129 131.241 163.564 130.605C164.021 129.967 164.216 129.171 164.149 128.215C164.101 127.529 163.876 126.991 163.472 126.602C163.068 126.191 162.577 125.892 162 125.702C161.444 125.511 160.84 125.397 160.19 125.359C159.54 125.321 158.955 125.32 158.436 125.356C156.752 125.474 155.11 125.881 153.509 126.578C151.929 127.273 150.554 128.225 149.386 129.435L145.974 118.271C147.777 116.578 149.866 115.242 152.241 114.261C154.635 113.259 157.068 112.671 159.542 112.498C161.807 112.339 163.992 112.521 166.095 113.042C168.219 113.541 170.115 114.379 171.785 115.557C173.453 116.715 174.82 118.196 175.886 120.001C176.952 121.806 177.571 123.935 177.742 126.387C177.792 127.094 177.738 127.818 177.581 128.56C177.424 129.302 177.193 130.028 176.887 130.738C176.582 131.449 176.212 132.122 175.776 132.758C175.338 133.374 174.865 133.919 174.355 134.393C175.255 134.727 176.01 135.206 176.617 135.832C177.225 136.458 177.723 137.165 178.112 137.952C178.502 138.739 178.791 139.586 178.979 140.491C179.166 141.376 179.29 142.255 179.351 143.128Z"/>
</mask>
<path d="M90.6111 135.612C90.7273 137.275 90.5371 138.886 90.0405 140.445C89.5425 141.984 88.8412 143.453 87.9366 144.853C87.0514 146.23 86.0141 147.525 84.8249 148.736C83.655 149.924 82.457 151.01 81.2309 151.994L91.0819 151.305L91.2405 164.326L61.992 165.369L61.1986 154.021C62.2739 153.57 63.3961 153.043 64.5651 152.439C65.7535 151.813 66.9056 151.116 68.0215 150.349C69.1582 149.58 70.2163 148.734 71.1958 147.809C72.1961 146.883 73.0563 145.893 73.7763 144.84C74.5156 143.765 75.0724 142.62 75.4468 141.403C75.842 140.185 75.9916 138.89 75.8957 137.519C75.8405 136.729 75.6463 136.043 75.3132 135.46C75.0009 134.877 74.5815 134.405 74.0551 134.045C73.5273 133.664 72.9243 133.403 72.2462 133.263C71.5874 133.1 70.8839 133.045 70.1357 133.097C69.5122 133.141 68.8835 133.258 68.2494 133.448C67.6138 133.618 66.993 133.849 66.387 134.142C65.781 134.435 65.2105 134.789 64.6755 135.202C64.1598 135.593 63.6998 136.032 63.2953 136.52L59.6975 124.492C60.4127 123.669 61.2509 122.963 62.2121 122.374C63.1734 121.784 64.1938 121.295 65.2735 120.907C66.3517 120.497 67.4573 120.18 68.5901 119.954C69.723 119.729 70.8402 119.577 71.9417 119.5C74.394 119.329 76.7113 119.616 78.8937 120.361C81.0745 121.086 82.9988 122.173 84.6665 123.623C86.3535 125.05 87.7179 126.793 88.7598 128.85C89.8225 130.906 90.4396 133.16 90.6111 135.612ZM115.303 156.315L114.669 148.152L106.867 148.573L106.089 139.229L113.865 138.435L113.35 131.078L122.944 129.404L123.623 137.314L131.773 136.493L132.643 147.146L124.467 147.592L125.163 155.751L115.303 156.315ZM179.351 143.128C179.545 145.892 179.266 148.324 178.515 150.423C177.783 152.5 176.674 154.269 175.189 155.73C173.703 157.171 171.881 158.301 169.725 159.12C167.588 159.917 165.21 160.407 162.591 160.59C161.407 160.673 160.183 160.643 158.92 160.502C157.657 160.36 156.399 160.135 155.145 159.826C153.891 159.517 152.663 159.133 151.462 158.674C150.281 158.213 149.17 157.706 148.129 157.153L148.437 144.538C149.265 145.023 150.184 145.481 151.196 145.911C152.206 146.321 153.244 146.687 154.311 147.009C155.397 147.309 156.478 147.536 157.554 147.691C158.651 147.844 159.698 147.886 160.696 147.816C161.277 147.775 161.867 147.692 162.464 147.567C163.08 147.419 163.629 147.203 164.11 146.919C164.591 146.635 164.972 146.253 165.252 145.774C165.552 145.294 165.677 144.69 165.626 143.962C165.594 143.505 165.357 143.094 164.913 142.728C164.47 142.362 163.948 142.064 163.347 141.835C162.745 141.585 162.127 141.409 161.493 141.307C160.858 141.184 160.333 141.137 159.917 141.166C159.626 141.187 159.275 141.232 158.862 141.303C158.468 141.351 158.066 141.421 157.655 141.513C157.243 141.604 156.845 141.726 156.459 141.878C156.092 142.008 155.81 142.164 155.614 142.344L155.178 133.416C155.534 133.432 155.869 133.44 156.182 133.439C156.495 133.438 156.828 133.426 157.181 133.401C157.909 133.35 158.694 133.232 159.538 133.048C160.379 132.843 161.153 132.549 161.857 132.165C162.559 131.761 163.129 131.241 163.564 130.605C164.021 129.967 164.216 129.171 164.149 128.215C164.101 127.529 163.876 126.991 163.472 126.602C163.068 126.191 162.577 125.892 162 125.702C161.444 125.511 160.84 125.397 160.19 125.359C159.54 125.321 158.955 125.32 158.436 125.356C156.752 125.474 155.11 125.881 153.509 126.578C151.929 127.273 150.554 128.225 149.386 129.435L145.974 118.271C147.777 116.578 149.866 115.242 152.241 114.261C154.635 113.259 157.068 112.671 159.542 112.498C161.807 112.339 163.992 112.521 166.095 113.042C168.219 113.541 170.115 114.379 171.785 115.557C173.453 116.715 174.82 118.196 175.886 120.001C176.952 121.806 177.571 123.935 177.742 126.387C177.792 127.094 177.738 127.818 177.581 128.56C177.424 129.302 177.193 130.028 176.887 130.738C176.582 131.449 176.212 132.122 175.776 132.758C175.338 133.374 174.865 133.919 174.355 134.393C175.255 134.727 176.01 135.206 176.617 135.832C177.225 136.458 177.723 137.165 178.112 137.952C178.502 138.739 178.791 139.586 178.979 140.491C179.166 141.376 179.29 142.255 179.351 143.128Z" fill="#E45993"/>
<path d="M90.0405 140.445L93.8461 141.677L93.849 141.668L93.8519 141.659L90.0405 140.445ZM87.9366 144.853L84.577 142.682L84.5715 142.69L87.9366 144.853ZM84.8249 148.736L87.6757 151.541L87.6787 151.538L84.8249 148.736ZM81.2309 151.994L78.7276 148.874L68.7549 156.876L81.51 155.984L81.2309 151.994ZM91.0819 151.305L95.0816 151.257L95.03 147.019L90.8029 147.315L91.0819 151.305ZM91.2405 164.326L91.3831 168.323L95.2879 168.184L95.2402 164.277L91.2405 164.326ZM61.992 165.369L58.0018 165.648L58.2714 169.504L62.1346 169.366L61.992 165.369ZM61.1986 154.021L59.6512 150.333L57.0084 151.442L57.2083 154.3L61.1986 154.021ZM64.5651 152.439L66.4008 155.993L66.4152 155.985L66.4296 155.978L64.5651 152.439ZM68.0215 150.349L65.7808 147.036L65.768 147.044L65.7553 147.053L68.0215 150.349ZM71.1958 147.809L68.4782 144.874L68.464 144.887L68.4499 144.9L71.1958 147.809ZM73.7763 144.84L70.4804 142.574L70.4745 142.582L73.7763 144.84ZM75.4468 141.403L71.642 140.169L71.6327 140.198L71.6237 140.227L75.4468 141.403ZM75.3132 135.46L71.7862 137.347L71.8129 137.397L71.8411 137.446L75.3132 135.46ZM74.0551 134.045L71.715 137.289L71.7557 137.318L71.7971 137.346L74.0551 134.045ZM72.2462 133.263L71.2867 137.146L71.3602 137.164L71.4344 137.18L72.2462 133.263ZM68.2494 133.448L69.2816 137.313L69.3413 137.297L69.4004 137.279L68.2494 133.448ZM64.6755 135.202L67.0927 138.389L67.1069 138.378L67.121 138.367L64.6755 135.202ZM63.2953 136.52L59.4631 137.666L61.6044 144.825L66.3744 139.073L63.2953 136.52ZM59.6975 124.492L56.6787 121.868L55.2344 123.529L55.8653 125.638L59.6975 124.492ZM65.2735 120.907L66.6286 124.67L66.6613 124.658L66.6938 124.646L65.2735 120.907ZM78.8937 120.361L77.6007 124.147L77.6165 124.152L77.6324 124.157L78.8937 120.361ZM84.6665 123.623L82.0422 126.642L82.0624 126.659L82.0827 126.676L84.6665 123.623ZM88.7598 128.85L85.1913 130.657L85.1988 130.672L85.2065 130.687L88.7598 128.85ZM86.6208 135.891C86.7025 137.059 86.5694 138.163 86.2292 139.231L93.8519 141.659C94.5048 139.609 94.7522 137.491 94.6013 135.333L86.6208 135.891ZM86.235 139.213C85.8474 140.411 85.2985 141.565 84.577 142.682L91.2962 147.024C92.3838 145.341 93.2376 143.557 93.8461 141.677L86.235 139.213ZM84.5715 142.69C83.8396 143.829 82.9754 144.91 81.9711 145.933L87.6787 151.538C89.0529 150.139 90.2632 148.631 91.3017 147.015L84.5715 142.69ZM81.9741 145.93C80.9071 147.014 79.8247 147.994 78.7276 148.874L83.7343 155.114C85.0893 154.027 86.4028 152.835 87.6757 151.541L81.9741 145.93ZM81.51 155.984L91.3609 155.296L90.8029 147.315L80.9519 148.004L81.51 155.984ZM87.0822 151.354L87.2408 164.375L95.2402 164.277L95.0816 151.257L87.0822 151.354ZM91.098 160.328L61.8495 161.371L62.1346 169.366L91.3831 168.323L91.098 160.328ZM65.9823 165.09L65.1888 153.742L57.2083 154.3L58.0018 165.648L65.9823 165.09ZM62.746 157.71C63.9306 157.213 65.1492 156.639 66.4008 155.993L62.7294 148.885C61.6429 149.446 60.6172 149.928 59.6512 150.333L62.746 157.71ZM66.4296 155.978C67.7576 155.278 69.0439 154.5 70.2877 153.645L65.7553 147.053C64.7674 147.732 63.7494 148.348 62.7007 148.9L66.4296 155.978ZM70.2622 153.663C71.5746 152.775 72.8021 151.793 73.9417 150.718L68.4499 144.9C67.6304 145.674 66.7417 146.386 65.7808 147.036L70.2622 153.663ZM73.9134 150.744C75.1181 149.629 76.1781 148.414 77.078 147.098L70.4745 142.582C69.9345 143.372 69.2741 144.137 68.4782 144.874L73.9134 150.744ZM77.0721 147.107C78.0356 145.706 78.7731 144.194 79.2699 142.58L71.6237 140.227C71.3717 141.045 70.9955 141.825 70.4804 142.574L77.0721 147.107ZM79.2516 142.637C79.8164 140.896 80.015 139.085 79.8859 137.24L71.9054 137.798C71.9682 138.696 71.8675 139.474 71.642 140.169L79.2516 142.637ZM79.8859 137.24C79.7962 135.956 79.4666 134.665 78.7853 133.474L71.8411 137.446C71.826 137.42 71.8847 137.501 71.9054 137.798L79.8859 137.24ZM78.8402 133.574C78.2367 132.445 77.3906 131.48 76.3131 130.743L71.7971 137.346C71.7965 137.346 71.7931 137.344 71.788 137.339C71.7829 137.335 71.7782 137.33 71.7745 137.326C71.7708 137.322 71.7698 137.32 71.7713 137.322C71.7729 137.324 71.7781 137.332 71.7862 137.347L78.8402 133.574ZM76.3953 130.801C75.3821 130.07 74.2512 129.593 73.0579 129.346L71.4344 137.18C71.5973 137.213 71.6724 137.258 71.715 137.289L76.3953 130.801ZM73.2056 129.38C72.1019 129.107 70.9774 129.028 69.8567 129.107L70.4147 137.087C70.7904 137.061 71.0728 137.093 71.2867 137.146L73.2056 129.38ZM69.8567 129.107C68.9206 129.172 67.9995 129.347 67.0983 129.617L69.4004 137.279C69.7674 137.169 70.1039 137.109 70.4147 137.087L69.8567 129.107ZM67.2172 129.584C66.332 129.82 65.4742 130.141 64.646 130.541L68.128 137.744C68.5119 137.558 68.8957 137.416 69.2816 137.313L67.2172 129.584ZM64.646 130.541C63.7896 130.955 62.9831 131.455 62.2299 132.037L67.121 138.367C67.4378 138.122 67.7724 137.916 68.128 137.744L64.646 130.541ZM62.2583 132.015C61.5037 132.587 60.8205 133.238 60.2163 133.967L66.3744 139.073C66.5791 138.827 66.816 138.599 67.0927 138.389L62.2583 132.015ZM67.1276 135.374L63.5298 123.345L55.8653 125.638L59.4631 137.666L67.1276 135.374ZM62.7164 127.116C63.1549 126.611 63.6772 126.167 64.3028 125.784L60.1214 118.964C58.8246 119.759 57.6705 120.727 56.6787 121.868L62.7164 127.116ZM64.3028 125.784C65.0275 125.34 65.801 124.968 66.6286 124.67L63.9184 117.143C62.5867 117.623 61.3193 118.229 60.1214 118.964L64.3028 125.784ZM66.6938 124.646C67.564 124.315 68.4555 124.059 69.3707 123.877L67.8096 116.031C66.459 116.3 65.1395 116.679 63.8532 117.167L66.6938 124.646ZM69.3707 123.877C70.3456 123.683 71.2952 123.555 72.2207 123.491L71.6626 115.51C70.3852 115.6 69.1005 115.774 67.8096 116.031L69.3707 123.877ZM72.2207 123.491C74.1762 123.354 75.9562 123.585 77.6007 124.147L80.1866 116.576C77.4665 115.647 74.6118 115.304 71.6626 115.51L72.2207 123.491ZM77.6324 124.157C79.3325 124.722 80.7891 125.552 82.0422 126.642L87.2907 120.604C85.2085 118.794 82.8165 117.45 80.1549 116.565L77.6324 124.157ZM82.0827 126.676C83.3437 127.743 84.3804 129.056 85.1913 130.657L92.3283 127.043C91.0555 124.53 89.3633 122.357 87.2502 120.569L82.0827 126.676ZM85.2065 130.687C86.0036 132.229 86.4849 133.948 86.6208 135.891L94.6013 135.333C94.3942 132.372 93.6414 129.583 92.3132 127.013L85.2065 130.687ZM115.303 156.315L111.315 156.625L111.618 160.533L115.531 160.309L115.303 156.315ZM114.669 148.152L118.657 147.843L118.355 143.948L114.454 144.158L114.669 148.152ZM106.867 148.573L102.881 148.905L103.204 152.776L107.082 152.567L106.867 148.573ZM106.089 139.229L105.682 135.25L101.776 135.649L102.102 139.561L106.089 139.229ZM113.865 138.435L114.271 142.414L118.125 142.02L117.855 138.156L113.865 138.435ZM113.35 131.078L112.663 127.137L109.108 127.757L109.36 131.357L113.35 131.078ZM122.944 129.404L126.93 129.063L126.557 124.714L122.257 125.464L122.944 129.404ZM123.623 137.314L119.637 137.656L119.984 141.7L124.023 141.294L123.623 137.314ZM131.773 136.493L135.759 136.168L135.428 132.105L131.372 132.513L131.773 136.493ZM132.643 147.146L132.861 151.14L136.964 150.916L136.63 146.82L132.643 147.146ZM124.467 147.592L124.249 143.598L120.131 143.823L120.481 147.932L124.467 147.592ZM125.163 155.751L125.391 159.745L129.498 159.51L129.148 155.411L125.163 155.751ZM119.291 156.006L118.657 147.843L110.681 148.462L111.315 156.625L119.291 156.006ZM114.454 144.158L106.652 144.578L107.082 152.567L114.885 152.146L114.454 144.158ZM110.853 148.24L110.075 138.897L102.102 139.561L102.881 148.905L110.853 148.24ZM106.495 143.208L114.271 142.414L113.458 134.455L105.682 135.25L106.495 143.208ZM117.855 138.156L117.34 130.799L109.36 131.357L109.874 138.714L117.855 138.156ZM114.037 135.018L123.632 133.345L122.257 125.464L112.663 127.137L114.037 135.018ZM118.959 129.746L119.637 137.656L127.608 136.972L126.93 129.063L118.959 129.746ZM124.023 141.294L132.173 140.473L131.372 132.513L123.222 133.334L124.023 141.294ZM127.786 136.819L128.656 147.472L136.63 146.82L135.759 136.168L127.786 136.819ZM132.425 143.152L124.249 143.598L124.685 151.586L132.861 151.14L132.425 143.152ZM120.481 147.932L121.177 156.091L129.148 155.411L128.452 147.253L120.481 147.932ZM124.934 151.758L115.074 152.322L115.531 160.309L125.391 159.745L124.934 151.758ZM178.515 150.423L174.748 149.075L174.745 149.084L174.742 149.093L178.515 150.423ZM175.189 155.73L177.973 158.603L177.984 158.592L177.995 158.581L175.189 155.73ZM169.725 159.12L171.122 162.868L171.134 162.863L171.145 162.859L169.725 159.12ZM151.462 158.674L150.009 162.401L150.022 162.406L150.034 162.411L151.462 158.674ZM148.129 157.153L144.13 157.055L144.07 159.524L146.251 160.684L148.129 157.153ZM148.437 144.538L150.46 141.087L144.604 137.654L144.438 144.44L148.437 144.538ZM151.196 145.911L149.63 149.592L149.661 149.605L149.693 149.618L151.196 145.911ZM154.311 147.009L153.155 150.838L153.2 150.852L153.246 150.865L154.311 147.009ZM157.554 147.691L156.986 151.65L156.993 151.651L157.001 151.652L157.554 147.691ZM162.464 147.567L163.285 151.482L163.34 151.47L163.395 151.457L162.464 147.567ZM165.252 145.774L161.861 143.653L161.828 143.704L161.798 143.757L165.252 145.774ZM163.347 141.835L161.812 145.529L161.866 145.551L161.92 145.572L163.347 141.835ZM161.493 141.307L160.735 145.234L160.797 145.246L160.858 145.256L161.493 141.307ZM158.862 141.303L159.35 145.273L159.444 145.261L159.536 145.246L158.862 141.303ZM156.459 141.878L157.795 145.648L157.861 145.625L157.926 145.599L156.459 141.878ZM155.614 142.344L151.619 142.54L152.036 151.081L158.325 145.286L155.614 142.344ZM155.178 133.416L155.367 129.42L150.967 129.212L151.182 133.611L155.178 133.416ZM159.538 133.048L160.391 136.956L160.438 136.946L160.484 136.934L159.538 133.048ZM161.857 132.165L163.769 135.678L163.81 135.656L163.851 135.633L161.857 132.165ZM163.564 130.605L160.313 128.276L160.288 128.31L160.265 128.344L163.564 130.605ZM163.472 126.602L160.624 129.41L160.658 129.445L160.693 129.478L163.472 126.602ZM162 125.702L160.702 129.486L160.727 129.494L160.753 129.503L162 125.702ZM153.509 126.578L151.913 122.91L151.906 122.913L151.898 122.917L153.509 126.578ZM149.386 129.435L145.56 130.604L147.545 137.097L152.263 132.214L149.386 129.435ZM145.974 118.271L143.236 115.354L141.421 117.059L142.148 119.44L145.974 118.271ZM152.241 114.261L153.767 117.959L153.776 117.955L153.786 117.951L152.241 114.261ZM166.095 113.042L165.134 116.925L165.157 116.93L165.181 116.936L166.095 113.042ZM171.785 115.557L169.479 118.826L169.492 118.835L169.505 118.844L171.785 115.557ZM177.581 128.56L173.668 127.732L177.581 128.56ZM175.776 132.758L179.036 135.076L179.056 135.048L179.075 135.019L175.776 132.758ZM174.355 134.393L171.631 131.464L166.876 135.886L172.965 138.143L174.355 134.393ZM178.112 137.952L174.527 139.724L178.112 137.952ZM178.979 140.491L175.063 141.307L175.066 141.319L178.979 140.491ZM175.361 143.407C175.525 145.749 175.274 147.607 174.748 149.075L182.281 151.771C183.258 149.04 183.565 146.035 183.342 142.849L175.361 143.407ZM174.742 149.093C174.201 150.63 173.41 151.869 172.384 152.879L177.995 158.581C179.938 156.669 181.365 154.37 182.287 151.752L174.742 149.093ZM172.405 152.858C171.352 153.879 170.011 154.732 168.304 155.38L171.145 162.859C173.752 161.869 176.053 160.463 177.973 158.603L172.405 152.858ZM168.327 155.372C166.599 156.016 164.605 156.439 162.312 156.599L162.87 164.58C165.815 164.374 168.576 163.817 171.122 162.868L168.327 155.372ZM162.312 156.599C161.385 156.664 160.404 156.643 159.365 156.527L158.475 164.477C159.961 164.643 161.428 164.681 162.87 164.58L162.312 156.599ZM159.365 156.527C158.277 156.405 157.19 156.211 156.102 155.942L154.187 163.71C155.607 164.06 157.036 164.316 158.475 164.477L159.365 156.527ZM156.102 155.942C155.007 155.672 153.937 155.337 152.889 154.937L150.034 162.411C151.39 162.928 152.775 163.361 154.187 163.71L156.102 155.942ZM152.915 154.947C151.869 154.539 150.901 154.096 150.007 153.621L146.251 160.684C147.439 161.316 148.693 161.888 150.009 162.401L152.915 154.947ZM152.128 157.25L152.436 144.636L144.438 144.44L144.13 157.055L152.128 157.25ZM146.414 147.989C147.408 148.571 148.483 149.104 149.63 149.592L152.762 142.231C151.885 141.858 151.121 141.475 150.46 141.087L146.414 147.989ZM149.693 149.618C150.819 150.075 151.973 150.481 153.155 150.838L155.468 143.18C154.516 142.892 153.593 142.567 152.699 142.205L149.693 149.618ZM153.246 150.865C154.49 151.208 155.736 151.471 156.986 151.65L158.123 143.731C157.22 143.602 156.305 143.41 155.376 143.154L153.246 150.865ZM157.001 151.652C158.345 151.84 159.672 151.897 160.975 151.806L160.417 143.826C159.724 143.874 158.957 143.848 158.107 143.729L157.001 151.652ZM160.975 151.806C161.747 151.752 162.518 151.643 163.285 151.482L161.642 143.652C161.216 143.742 160.808 143.798 160.417 143.826L160.975 151.806ZM163.395 151.457C164.348 151.229 165.277 150.875 166.144 150.363L162.076 143.475C161.98 143.531 161.812 143.61 161.533 143.677L163.395 151.457ZM166.144 150.363C167.208 149.735 168.079 148.864 168.706 147.792L161.798 143.757C161.825 143.711 161.867 143.653 161.924 143.595C161.981 143.538 162.036 143.498 162.076 143.475L166.144 150.363ZM168.643 147.896C169.505 146.517 169.709 145.012 169.617 143.683L161.636 144.241C161.64 144.305 161.63 144.265 161.654 144.151C161.679 144.029 161.738 143.849 161.861 143.653L168.643 147.896ZM169.617 143.683C169.49 141.868 168.52 140.518 167.459 139.643L162.367 145.813C162.296 145.754 162.124 145.595 161.96 145.311C161.787 145.011 161.664 144.642 161.636 144.241L169.617 143.683ZM167.459 139.643C166.644 138.97 165.733 138.465 164.775 138.098L161.92 145.572C162.163 145.664 162.297 145.755 162.367 145.813L167.459 139.643ZM164.882 138.141C163.996 137.773 163.076 137.51 162.128 137.357L160.858 145.256C161.178 145.307 161.494 145.397 161.812 145.529L164.882 138.141ZM162.252 137.379C161.441 137.223 160.537 137.113 159.638 137.176L160.196 145.157C160.146 145.16 160.164 145.155 160.268 145.164C160.369 145.173 160.522 145.193 160.735 145.234L162.252 137.379ZM159.638 137.176C159.171 137.209 158.68 137.276 158.187 137.36L159.536 145.246C159.869 145.189 160.081 145.165 160.196 145.157L159.638 137.176ZM158.373 137.333C157.845 137.398 157.316 137.49 156.787 137.608L158.523 145.417C158.816 145.352 159.092 145.305 159.35 145.273L158.373 137.333ZM156.787 137.608C156.174 137.744 155.575 137.927 154.991 138.157L157.926 145.599C158.115 145.525 158.313 145.464 158.523 145.417L156.787 137.608ZM155.122 138.108C154.46 138.343 153.635 138.728 152.903 139.403L158.325 145.286C158.145 145.452 157.99 145.547 157.906 145.594C157.82 145.641 157.777 145.655 157.795 145.648L155.122 138.108ZM159.609 142.149L159.173 133.22L151.182 133.611L151.619 142.54L159.609 142.149ZM154.988 137.411C155.403 137.431 155.806 137.441 156.195 137.439L156.169 129.439C155.931 129.44 155.665 129.434 155.367 129.42L154.988 137.411ZM156.195 137.439C156.607 137.438 157.03 137.421 157.46 137.391L156.902 129.411C156.626 129.43 156.383 129.439 156.169 129.439L156.195 137.439ZM157.46 137.391C158.413 137.324 159.392 137.174 160.391 136.956L158.684 129.14C157.996 129.29 157.405 129.375 156.902 129.411L157.46 137.391ZM160.484 136.934C161.636 136.654 162.737 136.24 163.769 135.678L159.944 128.652C159.568 128.857 159.123 129.032 158.591 129.162L160.484 136.934ZM163.851 135.633C165.046 134.945 166.072 134.022 166.864 132.866L160.265 128.344C160.185 128.46 160.072 128.577 159.862 128.698L163.851 135.633ZM166.816 132.934C167.928 131.382 168.256 129.607 168.139 127.936L160.159 128.494C160.168 128.627 160.152 128.643 160.168 128.579C160.176 128.546 160.19 128.499 160.216 128.443C160.242 128.386 160.274 128.329 160.313 128.276L166.816 132.934ZM168.139 127.936C168.039 126.498 167.518 124.948 166.252 123.725L160.693 129.478C160.489 129.281 160.344 129.055 160.255 128.844C160.172 128.645 160.16 128.511 160.159 128.494L168.139 127.936ZM166.321 123.793C165.445 122.905 164.395 122.278 163.247 121.902L160.753 129.503C160.764 129.507 160.748 129.502 160.716 129.483C160.683 129.462 160.65 129.437 160.624 129.41L166.321 123.793ZM163.298 121.919C162.363 121.598 161.398 121.423 160.424 121.366L159.956 129.352C160.282 129.371 160.524 129.425 160.702 129.486L163.298 121.919ZM160.424 121.366C159.644 121.32 158.883 121.315 158.157 121.366L158.715 129.346C159.028 129.325 159.437 129.322 159.956 129.352L160.424 121.366ZM158.157 121.366C156.004 121.517 153.917 122.038 151.913 122.91L155.105 130.246C156.303 129.724 157.501 129.431 158.715 129.346L158.157 121.366ZM151.898 122.917C149.856 123.815 148.048 125.063 146.509 126.656L152.263 132.214C153.061 131.388 154.002 130.731 155.12 130.239L151.898 122.917ZM153.211 128.266L149.799 117.102L142.148 119.44L145.56 130.604L153.211 128.266ZM148.711 121.187C150.147 119.839 151.822 118.762 153.767 117.959L150.714 110.564C147.909 111.722 145.406 113.318 143.236 115.354L148.711 121.187ZM153.786 117.951C155.796 117.109 157.803 116.629 159.821 116.488L159.263 108.507C156.334 108.712 153.473 109.408 150.695 110.572L153.786 117.951ZM159.821 116.488C161.689 116.357 163.454 116.509 165.134 116.925L167.057 109.159C164.529 108.533 161.925 108.321 159.263 108.507L159.821 116.488ZM165.181 116.936C166.838 117.325 168.256 117.963 169.479 118.826L174.091 112.289C171.974 110.796 169.599 109.756 167.01 109.148L165.181 116.936ZM169.505 118.844C170.684 119.662 171.659 120.71 172.442 122.035L179.33 117.967C177.981 115.682 176.222 113.768 174.065 112.271L169.505 118.844ZM172.442 122.035C173.142 123.22 173.616 124.726 173.752 126.666L181.733 126.108C181.525 123.143 180.762 120.392 179.33 117.967L172.442 122.035ZM173.752 126.666C173.774 126.977 173.753 127.328 173.668 127.732L181.494 129.388C181.723 128.308 181.81 127.211 181.733 126.108L173.752 126.666ZM173.668 127.732C173.566 128.211 173.416 128.686 173.212 129.159L180.563 132.318C180.97 131.37 181.282 130.392 181.494 129.388L173.668 127.732ZM173.212 129.159C173.009 129.632 172.764 130.076 172.476 130.498L179.075 135.019C179.659 134.168 180.155 133.266 180.563 132.318L173.212 129.159ZM172.515 130.441C172.222 130.853 171.926 131.19 171.631 131.464L177.079 137.322C177.804 136.647 178.454 135.894 179.036 135.076L172.515 130.441ZM172.965 138.143C173.363 138.291 173.595 138.462 173.747 138.619L179.487 133.046C178.424 131.951 177.148 131.162 175.745 130.642L172.965 138.143ZM173.747 138.619C174.063 138.944 174.321 139.308 174.527 139.724L181.698 136.179C181.126 135.021 180.387 133.972 179.487 133.046L173.747 138.619ZM174.527 139.724C174.758 140.192 174.94 140.715 175.063 141.307L182.895 139.676C182.641 138.456 182.245 137.286 181.698 136.179L174.527 139.724ZM175.066 141.319C175.216 142.029 175.314 142.725 175.361 143.407L183.342 142.849C183.267 141.786 183.117 140.723 182.893 139.664L175.066 141.319Z" fill="#143D46" mask="url(#path-36-outside-1_73_243)"/>
<path d="M17.3614 65.3932C16.6546 65.3932 16.0763 65.1339 15.6265 64.6152C15.2088 64.0965 15 63.3996 15 62.5243C15 61.6815 15.2088 60.9845 15.6265 60.4334C16.0763 59.8823 16.6546 59.6068 17.3614 59.6068H32.5904C33.2008 59.6068 33.747 59.8823 34.2289 60.4334C34.743 60.9845 35 61.6815 35 62.5243C35 63.3996 34.743 64.0965 34.2289 64.6152C33.747 65.1339 33.2008 65.3932 32.5904 65.3932H17.3614ZM24.8313 74C23.996 74 23.241 73.692 22.5663 73.0761C21.9237 72.4278 21.6024 71.6984 21.6024 70.8879C21.6024 69.9803 21.9237 69.2509 22.5663 68.6998C23.241 68.1163 23.996 67.8245 24.8313 67.8245C25.6024 67.8245 26.3253 68.1163 27 68.6998C27.6747 69.2509 28.012 69.9803 28.012 70.8879C28.012 71.6984 27.6747 72.4278 27 73.0761C26.3253 73.692 25.6024 74 24.8313 74ZM24.8313 57.1755C23.996 57.1755 23.241 56.8837 22.5663 56.3002C21.9237 55.7167 21.6024 54.9873 21.6024 54.1121C21.6024 53.2692 21.9237 52.5398 22.5663 51.9239C23.241 51.308 23.996 51 24.8313 51C25.6024 51 26.3253 51.308 27 51.9239C27.6747 52.5398 28.012 53.2692 28.012 54.1121C28.012 54.9873 27.6747 55.7167 27 56.3002C26.3253 56.8837 25.6024 57.1755 24.8313 57.1755Z" fill="#4AC92B"/>
<path d="M208.651 35.6121C207.946 36.3175 207.175 36.7486 206.339 36.9054C205.529 37.036 204.85 36.827 204.301 36.2783L200.5 32.477L196.699 36.2783C196.15 36.827 195.484 37.0491 194.7 36.9446C193.89 36.8139 193.119 36.3829 192.388 35.6513C191.682 34.9459 191.264 34.1883 191.134 33.3784C190.977 32.5423 191.173 31.85 191.722 31.3013L195.523 27.5L191.761 23.7379C191.291 23.2676 191.095 22.6014 191.173 21.7392C191.278 20.8509 191.682 20.0541 192.388 19.3487C193.146 18.591 193.942 18.1861 194.778 18.1338C195.614 18.0816 196.268 18.2906 196.738 18.7608L200.5 22.523L204.262 18.7608C204.732 18.2906 205.412 18.1077 206.3 18.2122C207.162 18.2906 207.946 18.6825 208.651 19.3879C209.383 20.1194 209.788 20.9162 209.866 21.7784C209.918 22.6144 209.709 23.2676 209.239 23.7379L205.477 27.5L209.278 31.3013C209.827 31.85 210.049 32.5162 209.945 33.3C209.84 34.0838 209.409 34.8545 208.651 35.6121Z" fill="#2999D1"/>
<path d="M39.5887 14C39.1155 14 38.7324 13.8215 38.4394 13.4646C38.1465 13.0866 38 12.6037 38 12.0157C38 11.4488 38.1465 10.9764 38.4394 10.5984C38.7324 10.1995 39.1155 10 39.5887 10H48.3775C48.7831 10 49.1549 10.1995 49.493 10.5984C49.831 10.9764 50 11.4488 50 12.0157C50 12.6037 49.831 13.0866 49.493 13.4646C49.1549 13.8215 48.7831 14 48.3775 14H39.5887Z" fill="#ED6F01"/>
</g>
<defs>
<filter id="filter0_d_73_243" x="0" y="0" width="230" height="246" filterUnits="userSpaceOnUse" color-interpolation-filters="sRGB">
<feFlood flood-opacity="0" result="BackgroundImageFix"/>
<feColorMatrix in="SourceAlpha" type="matrix" values="0 0 0 0 0 0 0 0 0 0 0 0 0 0 0 0 0 0 127 0" result="hardAlpha"/>
<feOffset dy="4"/>
<feComposite in2="hardAlpha" operator="out"/>
<feColorMatrix type="matrix" values="0 0 0 0 0 0 0 0 0 0 0 0 0 0 0 0 0 0 0.25 0"/>
<feBlend mode="normal" in2="BackgroundImageFix" result="effect1_dropShadow_73_243"/>
<feBlend mode="normal" in="SourceGraphic" in2="effect1_dropShadow_73_243" result="shape"/>
</filter>
<linearGradient id="paint0_linear_73_243" x1="73" y1="42" x2="119" y2="178" gradientUnits="userSpaceOnUse">
<stop stop-color="#2DA2D8"/>
<stop offset="0.530005" stop-color="#1969AB"/>
<stop offset="1" stop-color="#073784"/>
</linearGradient>
<linearGradient id="paint1_linear_73_243" x1="97.9999" y1="161" x2="141" y2="161" gradientUnits="userSpaceOnUse">
<stop stop-color="#9DAFC7"/>
<stop offset="1" stop-color="#4F7896"/>
</linearGradient>
<linearGradient id="paint2_linear_73_243" x1="34.5077" y1="118.938" x2="53.3745" y2="118.938" gradientUnits="userSpaceOnUse">
<stop stop-color="#949494"/>
<stop offset="0.5" stop-color="white"/>
<stop offset="1" stop-color="#FAFAFA"/>
</linearGradient>
<linearGradient id="paint3_linear_73_243" x1="186.87" y1="108.842" x2="205.737" y2="108.842" gradientUnits="userSpaceOnUse">
<stop stop-color="#FAFAFA"/>
<stop offset="0.46" stop-color="white"/>
<stop offset="1" stop-color="#949494"/>
</linearGradient>
<linearGradient id="paint4_linear_73_243" x1="65" y1="115" x2="60.5" y2="133.206" gradientUnits="userSpaceOnUse">
<stop stop-color="#3693E3"/>
<stop offset="1" stop-color="#0051AA"/>
</linearGradient>
<linearGradient id="paint5_linear_73_243" x1="177" y1="118" x2="177" y2="128.5" gradientUnits="userSpaceOnUse">
<stop stop-color="#328EDF"/>
<stop offset="1" stop-color="#0355AD"/>
</linearGradient>
</defs>
</svg>
