<svg width="192" height="192" viewBox="0 0 192 192" fill="none" xmlns="http://www.w3.org/2000/svg">
<mask id="mask0_73_288" style="mask-type:alpha" maskUnits="userSpaceOnUse" x="10" y="8" width="177" height="178">
<circle cx="98.5" cy="97.2633" r="88.5" fill="#D9D9D9"/>
</mask>
<g mask="url(#mask0_73_288)">
<path d="M193.473 95.3285C186.068 153.493 151.514 161.922 144.109 204.07C122.509 216.02 74.1774 213.343 54.432 207.442C50.3183 200.699 48.6729 185.525 37.1547 165.294C18.232 145.906 7.06636 130.972 4.24567 95.3285C4.24567 44.1175 46.6056 2.60284 98.8592 2.60284C151.113 2.60284 193.473 44.1175 193.473 95.3285Z" fill="#ED6F01"/>
<path d="M130.079 164.474C151.755 143.479 169.744 126.055 175.373 81.8412C175.373 55.7174 164.35 32.1168 146.613 15.2632C132.596 7.21581 116.277 2.60284 98.8592 2.60284C46.6056 2.60284 4.24567 44.1175 4.24567 95.3285C7.06636 130.972 18.232 145.906 37.1547 165.294C44.255 177.766 47.6037 188.315 50.0915 196.152C50.1525 196.344 50.2129 196.535 50.2729 196.724C69.5225 198.989 93.7616 196.372 108.732 186.368C116.033 178.079 123.24 171.099 130.079 164.474Z" fill="#FE9C07"/>
<path d="M150.691 86.0561C119.427 113.874 137.003 175.41 94.7455 175.41C52.4882 175.41 10.8274 130.284 10.8274 86.0561C10.8274 41.8284 45.0837 5.97479 87.341 5.97479C159.741 5.97479 162.209 50.6517 150.691 86.0561Z" fill="#FBCF4D"/>
<path d="M24.6015 151.22C19.965 138.92 17.4093 125.456 17.4093 111.345C17.4093 54.0472 59.5452 7.43112 112.02 6.00821C106.432 4.88014 100.656 4.28882 94.7456 4.28882C45.6726 4.28882 5.89111 45.0487 5.89111 95.3286C5.89111 116.396 12.8756 135.793 24.6015 151.22Z" fill="#FEF8D6"/>
<ellipse cx="64.3046" cy="97.8574" rx="17.2773" ry="17.7022" fill="#FAFAFA"/>
<ellipse cx="134.236" cy="99.5434" rx="16.4545" ry="16.0163" fill="#FAFAFA"/>
<rect x="71.7091" y="125.675" width="54.3" height="16.8592" fill="#FAFAFA"/>
<rect x="83.2273" y="149.278" width="32.9091" height="16.8592" fill="#D73338"/>
<path d="M92.6058 290.503C86.5645 289.502 80.6212 286.254 76.0502 281.456C73.8649 279.162 71.7646 277.285 71.3831 277.285C69.6636 277.285 64.1964 271.359 62.3529 267.498C60.7197 264.077 59.7895 263.061 57.6148 262.326C53.9785 261.096 49.0634 256.428 47.3538 252.581C45.4569 248.312 45.5146 241.038 47.4807 236.597L49.0018 233.162L46.9839 228.935C45.1893 225.176 45.0045 224.026 45.3139 218.548C45.5647 214.111 46.1275 211.579 47.3272 209.496L48.9925 206.603L47.0185 200.575C44.6096 193.218 40.5732 183.175 40.0255 183.175C39.8048 183.175 37.1746 185.67 34.1805 188.721C24.391 198.694 16.5008 202.948 4.82432 204.549C-7.07563 206.181 -19.032 201.997 -27.6621 193.18C-30.0928 190.696 -33.313 186.691 -34.8183 184.28C-36.3235 181.868 -38.2686 179.133 -39.1406 178.202C-41.4098 175.778 -42.8418 171.952 -42.8418 168.312C-42.8418 165.318 -43.0316 165.065 -46.6955 163.162C-52.4374 160.18 -56.3385 156.143 -59.0912 150.335C-61.2015 145.883 -61.5568 144.277 -61.5722 139.121C-61.5925 132.647 -60.2506 129.527 -56.7475 127.895C-55.8335 127.469 -55.0857 126.472 -55.0857 125.678C-55.0857 124.884 -54.0791 123.203 -52.8488 121.943C-51.1188 120.17 -49.9153 119.65 -47.5373 119.65C-45.8462 119.65 -44.2498 120.003 -43.9897 120.434C-43.216 121.717 -42.3753 121.338 -41.4674 119.296C-40.9972 118.238 -39.5086 116.788 -38.1593 116.073C-34.6037 114.188 -30.226 115.615 -28.5571 119.202C-27.3977 121.693 -27.2562 121.76 -25.3363 120.734C-22.3071 119.114 -19.2864 119.408 -17.2222 121.523C-14.8098 123.996 -14.143 128.093 -15.2309 133.761C-15.9009 137.251 -15.9032 139.649 -15.2396 143.551C-14.7567 146.393 -14.5388 149.412 -14.7554 150.261C-15.0362 151.362 -14.7641 151.805 -13.809 151.805C-13.0718 151.805 -11.9251 152.422 -11.2607 153.177C-9.90517 154.717 -6.47745 162.806 -5.76862 166.137C-5.11289 169.219 -0.384234 174.292 2.85274 175.387C8.75683 177.384 22.097 173.714 28.335 168.377L30.9461 166.143L25.1315 158.778C12.6765 143.001 5.20275 127.945 3.01259 114.218C2.62902 111.814 2.13798 108.965 1.92138 107.886C0.699811 101.805 0.674813 91.9793 1.85948 83.5746C3.91419 68.9983 8.46859 56.7755 16.5406 44.1741C21.3102 36.7282 34.0182 23.7315 41.6466 18.4978C58.7198 6.78419 79.0951 0.443857 99.6647 0.443857C103.779 0.443857 107.146 0.255039 107.146 0.0241351C107.146 -1.06544 104.472 -4.37079 102.076 -6.24413C99.4996 -8.25795 99.3344 -8.2843 96.8518 -7.07693C90.1047 -3.7957 83.4235 -7.06508 83.4235 -13.648C83.4235 -20.584 90.3766 -23.123 98.1987 -19.0433C102.59 -16.7531 110.118 -8.70624 112.82 -3.41523L115.051 0.953301L120.178 1.85432C138.931 5.14993 156.418 14.6118 170.407 29.0317C186.133 45.2426 194.577 63.2022 196.79 85.1431C199.535 112.375 191.803 135.24 171.105 161.097C165.81 167.712 165.653 167.162 174.104 171.591C182.383 175.93 190.088 177.217 194.33 174.968C197.451 173.314 200.332 169.493 201.327 165.69C203.222 158.441 205.999 152.584 207.753 152.132C209.327 151.727 209.502 151.103 209.934 144.373C210.198 140.248 210.044 134.967 209.581 132.271C208.611 126.63 209.083 124.12 211.598 121.543C213.708 119.38 217.714 119.003 220.043 120.747C221.363 121.737 221.637 121.626 222.831 119.614C224.867 116.182 227.591 114.681 230.697 115.278C233.29 115.777 236.472 119.075 236.472 121.265C236.472 121.935 236.916 121.834 237.871 120.948C241.137 117.919 247.902 120.516 249.124 125.269C249.384 126.276 250.675 127.806 251.994 128.669C255.321 130.845 256.687 135.723 255.67 141.796C254.124 151.032 249.714 157.924 242.742 162C238.194 164.659 238.047 164.846 238.025 167.982C237.999 171.713 236.525 175.736 234.004 178.963C233.036 180.201 230.908 183.254 229.275 185.747C216.551 205.17 191.95 210.595 173.128 198.127C170.547 196.418 165.963 192.531 162.942 189.489C159.921 186.447 157.365 183.959 157.262 183.959C156.831 183.959 153.613 192.328 151.522 198.885L149.271 205.943L150.974 209.263C152.229 211.711 152.748 214.28 152.946 219.032C153.187 224.792 153.005 225.865 151.242 229.098L149.269 232.716L150.793 235.776C151.631 237.46 152.529 240.916 152.788 243.456C153.671 252.113 148.648 259.347 139.641 262.393C137.868 262.993 137.052 263.83 136.753 265.356C136.133 268.521 132.515 272.917 128.112 275.856C125.965 277.289 123.662 279.422 122.995 280.597C119.143 287.371 103.829 292.363 92.6058 290.503ZM98.4738 268.637C91.0148 268.613 79.0713 267.596 75.5792 266.685C74.2269 266.332 73.4748 266.446 73.4748 267.005C73.4748 267.483 74.1635 267.874 75.0052 267.874C75.847 267.874 76.5357 268.265 76.5357 268.743C76.5357 269.281 75.7992 269.423 74.6041 269.116C72.8173 268.656 72.7455 268.739 73.6461 270.216C75.2572 272.86 86.0368 276.421 91.4579 276.1C102.993 278.466 145.058 261.223 98.4738 268.637ZM102.07 260.62C101.679 259.953 101.91 259.984 102.79 260.716C103.989 261.713 104.361 261.571 103.893 260.293C103.788 260.006 105.959 259.303 108.718 258.731C111.477 258.16 116.47 256.895 119.814 255.921C124.902 254.438 125.934 253.862 126.138 252.385C126.43 250.278 127.258 250.293 115.946 252.205C107.314 253.664 90.9845 254.373 92.089 253.241C92.3658 252.958 92.2214 252.267 91.768 251.707C90.1893 249.758 91.8308 248.87 96.0214 249.407C100.094 249.928 109.4 248.7 119.963 246.248C124.452 245.206 125.511 244.677 125.511 243.477C125.511 242.661 124.995 241.994 124.363 241.994C123.732 241.994 123.215 242.258 123.215 242.582C123.215 243.246 121.554 243.315 100.449 243.519C84.5122 243.673 74.3012 242.45 61.4137 238.843C54.3458 236.865 54.0043 236.883 52.9361 239.286C50.9128 243.837 53.0041 252.308 56.7761 254.841C60.8372 257.568 82.9807 261.343 95.9032 261.512C101.109 261.58 102.07 260.62 102.07 260.62ZM142.522 253.784C145.416 251.451 146.442 248.128 145.958 242.66C145.503 237.512 144.806 236.188 142.938 236.922C142.062 237.267 141.644 238.894 141.371 243.026C141.015 248.409 140.686 250.471 139.649 253.82C139.051 255.749 140.101 255.736 142.522 253.784ZM107.96 235.258C106.066 234.389 107.025 234.148 116.75 233.048C117.613 232.95 118.646 232.684 119.045 232.456C119.445 232.228 121.408 231.588 123.407 231.035C126.043 230.304 127.042 229.637 127.042 228.607C127.042 227.826 126.783 227.029 126.468 226.836C126.152 226.642 122.622 226.97 118.624 227.563C114.626 228.156 107.222 228.606 102.171 228.562C97.1207 228.518 91.4388 228.474 89.5448 228.466C87.3478 228.454 86.8876 228.324 88.2734 228.105C90.2662 227.789 90.3329 227.677 89.0808 226.738C87.8873 225.844 88.2873 225.66 92.2652 225.275C94.7674 225.032 99.2962 224.832 102.329 224.829C112.524 224.82 125.511 221.625 125.511 219.128C125.511 217.949 125.111 217.814 123.024 218.291C121.656 218.604 111.584 218.85 100.641 218.839C79.5686 218.818 70.4372 217.735 58.1039 213.801C55.0412 212.825 52.9534 212.52 52.5 212.985C52.1025 213.393 51.7653 215.94 51.7507 218.646C51.7194 224.456 53.3051 228.072 56.6646 229.853C56.298 234.182 123.491 242.804 107.96 235.258ZM144.192 227.816C145.281 226.488 146.384 224.541 146.642 223.488C147.386 220.448 146.212 212.942 144.912 212.43C143.096 211.716 142.558 212.988 142.049 219.206C141.786 222.418 141.315 225.241 141.002 225.48C140.689 225.719 140.368 226.886 140.289 228.072C140.096 230.961 141.695 230.856 144.192 227.816ZM138.519 207.093C141.496 206.229 142.795 204.399 144.645 198.467C147.768 188.451 153.866 174.705 158.569 167.081C159.628 165.364 163.231 160.43 166.576 156.117C176.477 143.352 181.982 133.979 185.883 123.241C207.61 75.3138 170.789 24.4086 129.718 11.6201C117.994 8.11242 116.259 7.89238 100.639 7.93249C86.7403 7.96806 84.5926 8.16131 77.2653 10.0351C58.2444 14.8991 45.2869 22.1981 32.7588 35.1056C9.79792 58.7618 2.2004 89.6307 11.6033 121.061C14.4787 130.672 23.5581 146.735 30.9754 155.333C38.3287 163.856 45.3355 177.067 51.9812 194.937C56.7999 206.46 54.9075 205.806 63.9073 208.642C85.1805 213.666 117.535 212.773 138.519 207.093ZM90.5395 169.949C77.9342 165.486 68.2193 150.494 67.8524 134.94C67.7538 130.758 68.0095 129.681 69.4838 128.069C72.7491 124.497 75.2039 124.211 100.262 124.489C121.783 124.727 123.79 124.866 126.063 126.275C130.175 128.824 131.046 133.88 128.946 143.007C126.616 153.139 120.606 162.864 114.097 167.04C107.231 171.445 97.9863 172.586 90.5395 169.949ZM105.997 164.262C107.681 163.787 110.436 162.354 112.119 161.079C114.875 158.992 112.514 161.079 114.491 158.551C113.326 156.865 113.668 158.228 113.668 157.708C102.756 144.697 85.156 149.411 84.8729 156.117C84.0502 156.865 84.3626 156.624 84.0502 156.865C82.4047 158.134 83.4786 158.3 86.1682 160.938C87.663 162.383 89.8091 163.773 90.9373 164.027C92.0655 164.281 93.3329 164.606 93.7538 164.75C95.5469 165.363 103.177 165.059 105.997 164.262ZM116.45 137.661C117.99 137.123 120.228 135.874 121.424 134.885C123.217 133.402 123.451 132.837 122.759 131.662C121.117 128.871 117.395 128.366 98.1292 128.32C83.3733 128.285 78.989 128.515 76.8348 129.437C74.9497 130.245 74.1986 131.022 74.3724 131.986C74.6698 133.635 80.5549 136.772 86.0205 138.196C90.8952 139.465 112.361 139.087 116.45 137.661ZM129.72 115.206C121.897 110.97 119.361 101.689 124.033 94.3907C130.537 84.231 147.152 88.6324 148.295 100.818C148.756 105.736 148.188 107.959 145.694 110.996C141.558 116.034 134.623 117.861 129.72 115.206ZM129.184 100.67C130.609 99.2104 130.27 96.6058 128.508 95.4785C127.172 94.623 126.616 94.6588 125.065 95.7C122.032 97.7366 123.077 101.611 126.659 101.611C127.543 101.611 128.679 101.188 129.184 100.67ZM59.9104 113.302C55.0583 110.841 51.7511 103.924 53.1959 99.2586L53.7239 97.5538L54.8424 99.1904C56.9105 102.216 61.2309 100.849 61.2309 97.1687C61.2309 95.2443 59.2376 93.7688 56.6377 93.7688H55.0047L56.6477 91.4042C61.7351 84.0821 74.3533 84.9865 78.7412 92.9877C80.7083 96.5747 80.9018 102.953 79.1578 106.72C77.9165 109.401 73.9543 112.662 70.1727 114.116C66.8821 115.38 63.4751 115.11 59.9104 113.302ZM49.782 73.4351C48.1835 70.3741 54.9577 64.7681 63.6111 61.9908C67.4212 60.7679 68.2823 60.7354 71.2635 61.7018C74.2495 62.6698 74.6226 63.0521 74.6226 65.1435C74.6226 67.4697 74.5662 67.5014 69.6485 67.9516C63.3565 68.5276 61.8384 69.0304 56.5394 72.2934C51.5476 75.3672 50.8523 75.4847 49.782 73.4351ZM138.52 68.901C136.205 66.9137 132.138 64.2714 129.481 63.0294C125.111 60.9869 124.673 60.5681 124.889 58.6446C125.087 56.8859 125.555 56.4759 127.591 56.2742C130.964 55.9401 136.173 58.4587 140.435 62.4854C144.781 66.5912 146.326 69.372 145.302 71.247C144.21 73.2475 143.16 72.8842 138.52 68.901ZM200.459 184.742C201.957 183.945 204.56 181.821 206.244 180.022C207.928 178.222 210.146 175.887 211.173 174.832C212.422 173.55 212.612 173.082 211.747 173.422C210.869 173.768 210.453 173.534 210.453 172.696C210.453 171.854 210.026 171.617 209.114 171.953C208.377 172.224 208.021 172.166 208.322 171.825C208.622 171.484 208.51 170.519 208.072 169.68C207.356 168.309 206.951 168.653 204.054 173.084C199.631 179.849 195.514 182.041 187.513 181.889C183.584 181.814 182.303 181.992 183.478 182.452C184.425 182.821 185.2 183.459 185.2 183.868C185.2 185.181 191.564 186.998 194.719 186.586C196.378 186.369 198.961 185.539 200.459 184.742ZM8.60543 185.027C10.1754 184.761 11.2924 184.265 11.0877 183.926C10.8829 183.586 12.1811 182.805 13.9725 182.19C17.2149 181.075 17.2011 181.072 10.913 181.439C2.22408 181.947 -1.38784 180.79 -5.62993 176.142C-7.48759 174.107 -9.61638 171.239 -10.3606 169.77C-11.1048 168.3 -11.859 167.539 -12.0367 168.078C-12.2143 168.617 -12.7743 169.058 -13.281 169.058C-13.7877 169.058 -14.2541 169.764 -14.3175 170.627C-14.3808 171.489 -14.1098 172.195 -13.7151 172.195C-13.3204 172.195 -12.9974 172.725 -12.9974 173.372C-12.9974 174.019 -12.7386 174.548 -12.4222 174.548C-12.1058 174.548 -11.0286 176.129 -10.0283 178.061C-9.0281 179.994 -7.90955 181.384 -7.54261 181.152C-7.1757 180.92 -6.87551 181.064 -6.87551 181.473C-6.87551 181.882 -5.41198 182.944 -3.62324 183.833C-0.279217 185.495 3.60386 185.874 8.60543 185.027ZM-33.238 173.858C-32.8382 173.479 -27.9342 170.772 -22.3402 167.842C-14.3818 163.674 -12.2782 162.246 -12.6702 161.277C-12.9455 160.596 -13.3444 159.422 -13.5561 158.667C-13.7678 157.912 -14.3963 157.294 -14.9526 157.294C-16.0599 157.294 -37.2876 166.242 -38.061 167.034C-38.6483 167.636 -35.4527 174.548 -34.5872 174.548C-34.245 174.548 -33.6379 174.238 -33.238 173.858ZM232.51 168.169C232.309 166.764 230.314 165.572 221.962 161.865C216.298 159.351 211.202 157.294 210.638 157.294C210.075 157.294 209.144 158.44 208.569 159.84L207.525 162.385L218.746 168.294L229.967 174.203L231.363 172.052C232.131 170.869 232.647 169.122 232.51 168.169ZM-26.4004 157.12L-19.8846 153.808V147.368C-19.8846 143.825 -20.2467 139.951 -20.6893 138.758C-21.2631 137.211 -21.2403 135.505 -20.6098 132.811C-19.6212 128.588 -20.1311 125.14 -21.7443 125.14C-23.1573 125.14 -26.539 129.328 -27.9945 132.881C-28.6359 134.447 -29.3979 137.611 -29.688 139.913L-30.2154 144.1L-32.068 142.45C-33.0869 141.543 -35.213 140.589 -36.7927 140.33C-38.4633 140.056 -39.5337 139.487 -39.3513 138.97C-38.9218 137.752 -45.2035 125.905 -46.8384 124.85C-47.8056 124.225 -48.4042 124.253 -49.0871 124.953C-49.8179 125.702 -49.6561 126.801 -48.3339 130.07C-45.3838 137.365 -45.1115 138.989 -46.6064 140.376C-47.338 141.054 -48.2537 141.59 -48.6414 141.567C-49.0292 141.544 -50.3479 139.427 -51.572 136.862C-52.796 134.297 -54.0948 132.198 -54.458 132.198C-54.8213 132.198 -55.5215 133.105 -56.0139 134.212C-57.8775 138.404 -54.2787 150.93 -50.0375 155.013C-46.9017 158.032 -41.1912 160.381 -36.9225 160.407C-33.7226 160.428 -31.6048 159.765 -26.4004 157.12ZM237.866 158.859C245.666 155.231 248.806 150.676 250.297 140.825C251.05 135.856 250.996 135.051 249.828 133.728C248.104 131.775 247.467 132.284 245.273 137.368C243.353 141.816 241.697 142.722 240.317 140.079C239.703 138.904 239.971 137.312 241.468 133.236C245.129 123.269 242.455 121.541 237.428 130.623C235.639 133.854 234.175 137.509 234.175 138.745C234.175 140.427 233.885 140.879 233.021 140.539C231.501 139.941 228.101 141.301 225.949 143.367L224.227 145.02V142.119C224.227 136.83 218.768 124.356 216.454 124.356C214.849 124.356 214.114 128.093 214.942 132.049C215.542 134.919 215.531 137.683 214.899 142.139C214.421 145.514 214.273 149.594 214.57 151.205C215.074 153.942 215.521 154.34 221.39 157.275C228.627 160.895 232.655 161.282 237.866 158.859ZM-32.4696 133.248C-31.8172 127.005 -32.3901 122.183 -33.9774 120.556C-35.8004 118.688 -37.1036 120.571 -37.0375 124.978C-36.9968 127.703 -36.2492 137.591 -35.9785 138.987C-35.964 139.055 -35.2897 138.931 -34.477 138.714C-33.2857 138.395 -32.8967 137.336 -32.4696 133.248ZM230.82 135.38C230.892 133.895 231.171 130.683 231.44 128.244C232.246 120.941 229.28 116.486 227.363 122.12C226.411 124.917 226.316 128.36 227.023 134.395C227.449 138.029 227.71 138.522 229.101 138.316C230.327 138.134 230.72 137.462 230.82 135.38ZM93.1835 -13.0844C92.6989 -14.5927 89.5448 -14.8099 89.5448 -13.3349C89.5448 -12.5341 90.2357 -12.1039 91.5217 -12.1039C92.761 -12.1039 93.381 -12.4698 93.1835 -13.0844Z" fill="#143D46"/>
<path d="M-12.2088 167.823L-31.9543 178.782C-9.57612 214.523 22.3457 193.674 35.5093 178.782L29.7502 172.038C5.3975 191.595 -8.36946 177.377 -12.2088 167.823Z" fill="url(#paint0_linear_73_288)"/>
<path d="M226.382 177.939L207.459 166.98C197.586 189.909 175.373 179.344 165.5 171.195C159.741 180.468 159.741 180.468 159.741 180.468C187.714 215.872 226.382 191.426 226.382 177.939Z" fill="url(#paint1_linear_73_288)"/>
<ellipse cx="48.6729" cy="125.675" rx="8.22727" ry="8.42961" fill="#FA5A59"/>
<ellipse cx="147.4" cy="125.675" rx="8.22727" ry="8.42961" fill="#FA5A59"/>
<ellipse cx="42.0911" cy="53.1805" rx="6.58181" ry="6.74369" fill="#FEF8D6"/>
</g>
<defs>
<linearGradient id="paint0_linear_73_288" x1="9.18204" y1="167.823" x2="1.43103" y2="198.429" gradientUnits="userSpaceOnUse">
<stop stop-color="#3693E3"/>
<stop offset="1" stop-color="#0051AA"/>
</linearGradient>
<linearGradient id="paint1_linear_73_288" x1="193.473" y1="172.881" x2="193.473" y2="190.583" gradientUnits="userSpaceOnUse">
<stop stop-color="#328EDF"/>
<stop offset="1" stop-color="#0355AD"/>
</linearGradient>
</defs>
</svg>
