<svg width="230" height="203" viewBox="0 0 230 203" fill="none" xmlns="http://www.w3.org/2000/svg">
<circle cx="119.5" cy="101.5" r="101.5" fill="#FAFAFA"/>
<circle cx="119" cy="99" r="87" fill="#E6E5D8"/>
<circle cx="119" cy="99" r="79" fill="url(#paint0_linear_48_276)"/>
<ellipse cx="119.5" cy="186" rx="34.5" ry="4" fill="#8391AD"/>
<path d="M177 72C172.5 106.5 151.5 111.5 147 136.5C133.873 143.588 104.5 142 92.5 138.5C90 134.5 89 125.5 82 113.5C70.5 102 63.7142 93.1421 62 72C62 41.6243 87.7436 17 119.5 17C151.256 17 177 41.6243 177 72Z" fill="#ED6F01"/>
<path d="M138.473 113.013C151.647 100.56 162.579 90.2252 166 64C166 48.5048 159.301 34.5061 148.522 24.5094C140.003 19.7362 130.086 17 119.5 17C87.7436 17 62 41.6243 62 72C63.7142 93.1421 70.5 102 82 113.5C86.3151 120.897 88.3502 127.155 89.8621 131.803C89.8992 131.917 89.9359 132.03 89.9724 132.142C101.671 133.486 116.402 131.933 125.5 126C129.937 121.083 134.317 116.943 138.473 113.013Z" fill="#FE9C07"/>
<path d="M151 66.5C132 83 142.681 119.5 117 119.5C91.3188 119.5 66 92.7335 66 66.5C66 40.2665 86.8188 19 112.5 19C156.5 19 158 45.5 151 66.5Z" fill="#FBCF4D"/>
<path d="M74.371 105.152C71.5532 97.8559 70 89.8701 70 81.5C70 47.5141 95.6075 19.8638 127.498 19.0199C124.102 18.3507 120.592 18 117 18C87.1766 18 63 42.1766 63 72C63 84.4963 67.2447 96.0013 74.371 105.152Z" fill="#FEF8D6"/>
<circle cx="98.4999" cy="73.5" r="10.5" fill="#FAFAFA"/>
<ellipse cx="141" cy="74.5" rx="10" ry="9.5" fill="#FAFAFA"/>
<rect x="103" y="90" width="33" height="10" fill="#FAFAFA"/>
<rect x="110" y="104" width="20" height="10" fill="#D73338"/>
<path d="M94.9757 140L120.76 142.581L149 140V167.535L115.235 177C115.235 177 99.887 172.267 94.9757 167.535C90.0644 162.802 90.6416 153.917 92.5201 153.767C94.3986 153.618 86.5734 144.415 94.9757 140Z" fill="#FDFEF8"/>
<path d="M96.9999 140L118 143L141 140V172L113.5 183C113.5 183 101 177.5 96.9999 172C92.9999 166.5 93.47 156.174 94.9999 156C96.5299 155.826 90.1566 145.13 96.9999 140Z" fill="url(#paint1_linear_48_276)"/>
<path d="M49.5 100C49.5 106.904 44.1797 112 37 112C29.8203 112 24 106.404 24 99.5C24 92.5964 28 88 39 86C47 89 49.5 89 49.5 100Z" fill="#B7C5E1"/>
<path d="M42.5117 92.8747C45.5 88.754 47.7934 88.8999 48 91C44.5 96 46.5 106.5 40.5 106.5C36.3421 110.015 28 106 25 100.5C24.0595 98.7757 23.3508 95.4619 28.6027 88.754C34 88.754 37.3037 84.0376 40.5 86.5C41.6416 87.3796 41.0397 94.9046 42.5117 92.8747Z" fill="#FAFAFA"/>
<path d="M214 98.5C214 104.851 205.299 112 199.5 112C193.701 112 187 107 188 98.5C188 92.1487 185.701 88 191.5 88C195 88 195.556 85.4539 198.5 85.5C201.457 85.5463 202.5 89 207 89C212.288 90.8391 214 95.1263 214 98.5Z" fill="#B7C5E1"/>
<path d="M211 96.3021C211 101.335 203.434 107 198.391 107C193.348 107 187.521 103.038 188.391 96.3021C188.391 91.2692 186.392 87.9816 191.435 87.9816C194.478 87.9816 194.961 85.9639 197.522 86.0005C200.093 86.0372 201 88.774 204.913 88.774C209.511 90.2314 211 93.6287 211 96.3021Z" fill="#FAFAFA"/>
<rect x="34.5076" y="115.938" width="18.8669" height="6" transform="rotate(-26.8607 34.5076 115.938)" fill="url(#paint2_linear_48_276)"/>
<rect x="186.87" y="105.842" width="18.8669" height="6" transform="rotate(28.1592 186.87 105.842)" fill="url(#paint3_linear_48_276)"/>
<path d="M115.7 187.767C112.028 187.173 108.416 185.247 105.638 182.401C104.31 181.04 103.034 179.927 102.802 179.927C101.757 179.927 98.4342 176.412 97.3138 174.122C96.3212 172.093 95.7559 171.49 94.4343 171.054C92.2244 170.324 89.2373 167.556 88.1983 165.274C87.0455 162.742 87.0806 158.427 88.2755 155.793L89.1999 153.755L87.9735 151.248C86.8829 149.019 86.7706 148.337 86.9586 145.087C87.111 142.455 87.4531 140.954 88.1822 139.718L89.1942 138.002L87.9946 134.426C86.5306 130.063 84.0775 124.106 83.7447 124.106C83.6105 124.106 82.0121 125.586 80.1924 127.395C74.243 133.311 69.4479 135.834 62.3517 136.784C55.1196 137.752 47.8533 135.27 42.6085 130.04C41.1313 128.567 39.1743 126.192 38.2595 124.761C37.3447 123.331 36.1626 121.708 35.6326 121.156C34.2536 119.718 33.3833 117.449 33.3833 115.29C33.3833 113.514 33.268 113.364 31.0412 112.235C27.5517 110.466 25.1808 108.072 23.508 104.627C22.2254 101.986 22.0095 101.033 22.0001 97.9752C21.9878 94.1354 22.8033 92.2847 24.9323 91.3167C25.4878 91.0641 25.9422 90.4724 25.9422 90.0016C25.9422 89.5309 26.554 88.5339 27.3017 87.786C28.3531 86.7344 29.0845 86.4263 30.5297 86.4263C31.5574 86.4263 32.5276 86.6356 32.6857 86.8915C33.1559 87.6525 33.6668 87.4274 34.2186 86.2161C34.5043 85.5888 35.409 84.7285 36.229 84.3044C38.3898 83.1867 41.0504 84.0328 42.0646 86.1602C42.7692 87.638 42.8552 87.678 44.022 87.069C45.8629 86.1082 47.6988 86.2825 48.9532 87.5373C50.4193 89.0037 50.8245 91.4344 50.1634 94.7959C49.7562 96.866 49.7548 98.2887 50.1581 100.603C50.4516 102.288 50.584 104.08 50.4524 104.583C50.2817 105.236 50.4471 105.499 51.0276 105.499C51.4756 105.499 52.1724 105.865 52.5762 106.313C53.4 107.226 55.4832 112.024 55.914 114C56.3125 115.828 59.1862 118.837 61.1535 119.486C64.7416 120.671 72.8489 118.494 76.6399 115.329L78.2268 114.003L74.6931 109.635C67.1237 100.277 62.5816 91.3463 61.2506 83.2042C61.0175 81.7783 60.7191 80.0883 60.5874 79.4487C59.8451 75.8414 59.8299 70.0134 60.5498 65.0282C61.7985 56.3823 64.5664 49.1323 69.472 41.6579C72.3707 37.2413 80.0938 29.5324 84.7299 26.428C95.1059 19.4801 107.489 15.7194 119.99 15.7194C122.49 15.7194 124.536 15.6074 124.536 15.4704C124.536 14.8241 122.911 12.8636 121.455 11.7524C119.889 10.5579 119.789 10.5423 118.28 11.2584C114.18 13.2047 110.119 11.2655 110.119 7.36082C110.119 3.24673 114.345 1.74074 119.099 4.16062C121.767 5.51906 126.343 10.292 127.985 13.4304L129.34 16.0215L132.456 16.556C143.853 18.5108 154.481 24.123 162.982 32.6761C172.539 42.2916 177.671 52.9443 179.016 65.9585C180.684 82.1111 175.985 95.6734 163.406 111.011C160.188 114.934 160.093 114.608 165.229 117.235C170.261 119.809 174.943 120.572 177.521 119.238C179.417 118.257 181.169 115.99 181.773 113.735C182.925 109.435 184.612 105.961 185.678 105.693C186.635 105.453 186.742 105.083 187.004 101.091C187.165 98.6437 187.071 95.5113 186.789 93.912C186.2 90.5666 186.487 89.0777 188.015 87.5492C189.298 86.2661 191.733 86.0422 193.148 87.0771C193.95 87.6641 194.116 87.5981 194.842 86.4046C196.079 84.3692 197.735 83.4789 199.623 83.8332C201.199 84.1289 203.132 86.0853 203.132 87.3843C203.132 87.7813 203.402 87.7215 203.982 87.1962C205.967 85.3993 210.079 86.94 210.821 89.7592C210.979 90.3567 211.764 91.2641 212.565 91.7758C214.587 93.0665 215.418 95.9597 214.8 99.562C213.86 105.04 211.18 109.128 206.943 111.546C204.179 113.123 204.089 113.234 204.076 115.094C204.06 117.307 203.165 119.693 201.632 121.607C201.044 122.342 199.751 124.153 198.758 125.631C191.026 137.152 176.075 140.37 164.636 132.975C163.067 131.961 160.281 129.655 158.445 127.851C156.609 126.047 155.056 124.571 154.993 124.571C154.732 124.571 152.776 129.535 151.505 133.424L150.137 137.611L151.172 139.58C151.935 141.032 152.25 142.556 152.371 145.374C152.517 148.791 152.406 149.428 151.335 151.345L150.136 153.491L151.062 155.306C151.571 156.305 152.117 158.355 152.274 159.861C152.811 164.996 149.759 169.287 144.285 171.094C143.207 171.45 142.711 171.946 142.529 172.851C142.152 174.729 139.954 177.336 137.278 179.079C135.973 179.929 134.574 181.195 134.168 181.891C131.827 185.909 122.52 188.87 115.7 187.767ZM119.266 174.797C114.733 174.783 107.474 174.18 105.352 173.639C104.53 173.43 104.073 173.498 104.073 173.829C104.073 174.113 104.492 174.345 105.003 174.345C105.515 174.345 105.933 174.577 105.933 174.86C105.933 175.179 105.486 175.264 104.759 175.081C103.673 174.809 103.63 174.858 104.177 175.734C105.156 177.302 111.707 179.415 115.002 179.224C122.012 180.627 147.577 170.4 119.266 174.797ZM121.451 170.042C121.214 169.647 121.354 169.665 121.889 170.099C122.618 170.691 122.844 170.606 122.559 169.848C122.495 169.678 123.815 169.261 125.491 168.922C127.168 168.583 130.203 167.833 132.235 167.255C135.327 166.376 135.954 166.034 136.078 165.158C136.256 163.908 136.759 163.917 129.884 165.051C124.638 165.916 114.714 166.337 115.385 165.666C115.554 165.497 115.466 165.088 115.19 164.756C114.231 163.599 115.229 163.073 117.775 163.391C120.25 163.7 125.906 162.972 132.326 161.518C135.054 160.9 135.697 160.586 135.697 159.874C135.697 159.39 135.383 158.994 135 158.994C134.616 158.994 134.302 159.151 134.302 159.343C134.302 159.737 133.292 159.778 120.466 159.899C110.781 159.99 104.575 159.265 96.743 157.125C92.4476 155.952 92.2401 155.963 91.5909 157.388C90.3612 160.087 91.6322 165.112 93.9246 166.614C96.3927 168.232 109.85 170.471 117.704 170.571C120.867 170.612 121.451 170.042 121.451 170.042ZM146.036 165.987C147.794 164.604 148.418 162.633 148.124 159.389C147.847 156.335 147.423 155.55 146.288 155.986C145.756 156.19 145.502 157.156 145.336 159.606C145.119 162.799 144.919 164.023 144.289 166.009C143.926 167.153 144.564 167.145 146.036 165.987ZM125.031 154.999C123.88 154.483 124.463 154.34 130.373 153.688C130.897 153.63 131.525 153.472 131.768 153.337C132.011 153.201 133.203 152.822 134.418 152.494C136.021 152.06 136.627 151.665 136.627 151.054C136.627 150.59 136.47 150.118 136.279 150.003C136.087 149.888 133.942 150.083 131.512 150.435C129.082 150.786 124.582 151.053 121.513 151.027C118.443 151.001 114.99 150.975 113.839 150.97C112.504 150.963 112.224 150.886 113.067 150.756C114.278 150.569 114.318 150.502 113.557 149.945C112.832 149.415 113.075 149.306 115.493 149.077C117.013 148.933 119.766 148.814 121.609 148.813C127.805 148.807 135.697 146.912 135.697 145.431C135.697 144.732 135.454 144.652 134.186 144.935C133.355 145.12 127.233 145.267 120.583 145.26C107.776 145.247 102.227 144.605 94.7315 142.272C92.8702 141.692 91.6014 141.512 91.3258 141.788C91.0843 142.029 90.8793 143.54 90.8705 145.145C90.8515 148.591 91.8152 150.736 93.8569 151.793C93.6341 154.36 134.469 159.475 125.031 154.999ZM147.05 150.584C147.712 149.797 148.383 148.642 148.539 148.017C148.992 146.214 148.278 141.762 147.488 141.459C146.384 141.035 146.057 141.789 145.748 145.478C145.588 147.383 145.302 149.057 145.112 149.199C144.922 149.341 144.727 150.033 144.679 150.736C144.561 152.45 145.533 152.388 147.05 150.584ZM143.603 138.292C145.412 137.78 146.202 136.695 147.326 133.176C149.224 127.235 152.93 119.082 155.788 114.56C156.431 113.541 158.621 110.615 160.654 108.056C166.671 100.485 170.016 94.9251 172.388 88.5564C185.592 60.1283 163.214 29.934 138.254 22.3485C131.129 20.268 130.074 20.1374 120.582 20.1612C112.135 20.1823 110.83 20.297 106.377 21.4084C94.817 24.2935 86.9422 28.6228 79.3285 36.2789C65.3743 50.3105 60.757 68.6203 66.4715 87.2631C68.219 92.9641 73.7369 102.492 78.2446 107.591C82.7135 112.647 86.9718 120.483 91.0106 131.083C93.939 137.917 92.789 137.53 98.2585 139.212C111.187 142.191 130.85 141.662 143.603 138.292ZM114.444 116.261C106.783 113.614 100.879 104.721 100.656 95.4953C100.596 93.0151 100.752 92.3763 101.648 91.4197C103.632 89.3011 105.124 89.1317 120.353 89.2962C133.431 89.4374 134.651 89.5199 136.033 90.3558C138.531 91.8677 139.061 94.8669 137.785 100.28C136.369 106.29 132.717 112.058 128.76 114.536C124.588 117.148 118.969 117.825 114.444 116.261ZM123.838 112.888C124.861 112.606 126.536 111.756 127.559 111C129.233 109.762 127.798 111 129 109.5C128.292 108.5 128.5 109.309 128.5 109C121.868 101.283 111.172 104.079 111 108.056C110.5 108.5 110.69 108.357 110.5 108.5C109.5 109.253 110.153 109.351 111.787 110.916C112.696 111.773 114 112.597 114.686 112.748C115.371 112.899 116.141 113.092 116.397 113.177C117.487 113.541 122.124 113.361 123.838 112.888ZM130.19 97.1091C131.126 96.7903 132.487 96.0495 133.213 95.4629C134.303 94.5831 134.445 94.2481 134.025 93.5509C133.027 91.8957 130.765 91.5961 119.056 91.5689C110.089 91.5479 107.424 91.6846 106.115 92.2316C104.969 92.7104 104.513 93.1716 104.618 93.7434C104.799 94.7216 108.376 96.5823 111.697 97.4265C114.66 98.1793 127.706 97.9554 130.19 97.1091ZM138.255 83.7904C133.501 81.2776 131.959 75.7724 134.799 71.4437C138.751 65.4175 148.849 68.0282 149.544 75.2558C149.824 78.1728 149.479 79.4919 147.963 81.2933C145.449 84.2813 141.235 85.3653 138.255 83.7904ZM137.93 75.1684C138.795 74.3025 138.589 72.7576 137.519 72.0889C136.706 71.5815 136.368 71.6027 135.426 72.2203C133.583 73.4283 134.218 75.7265 136.395 75.7265C136.932 75.7265 137.623 75.4754 137.93 75.1684ZM95.8294 82.6609C92.8806 81.2009 90.8707 77.0982 91.7488 74.3311L92.0696 73.3199L92.7494 74.2906C94.0063 76.0855 96.6319 75.2745 96.6319 73.0915C96.6319 71.95 95.4205 71.0748 93.8405 71.0748H92.8481L93.8466 69.6723C96.9384 65.3292 104.607 65.8656 107.274 70.6115C108.469 72.7391 108.587 76.5225 107.527 78.7567C106.772 80.3468 104.364 82.2812 102.066 83.1434C100.066 83.8937 97.9958 83.7335 95.8294 82.6609ZM89.674 59.0139C88.7026 57.1983 92.8195 53.8731 98.0785 52.2258C100.394 51.5004 100.917 51.4811 102.729 52.0543C104.544 52.6285 104.771 52.8553 104.771 54.0958C104.771 55.4756 104.736 55.4944 101.748 55.7614C97.9237 56.1031 97.0011 56.4013 93.7807 58.3367C90.7471 60.1599 90.3245 60.2297 89.674 59.0139ZM143.603 56.3246C142.197 55.1458 139.724 53.5785 138.11 52.8418C135.454 51.6303 135.188 51.3819 135.319 50.241C135.44 49.1978 135.724 48.9546 136.961 48.835C139.011 48.6368 142.177 50.1307 144.767 52.5192C147.409 54.9545 148.347 56.6039 147.725 57.7161C147.061 58.9026 146.423 58.6872 143.603 56.3246ZM181.246 125.036C182.156 124.563 183.738 123.303 184.762 122.235C185.785 121.168 187.133 119.783 187.757 119.157C188.516 118.397 188.632 118.119 188.106 118.321C187.572 118.526 187.319 118.387 187.319 117.89C187.319 117.391 187.06 117.25 186.506 117.449C186.058 117.61 185.841 117.576 186.024 117.374C186.207 117.171 186.139 116.599 185.873 116.101C185.438 115.288 185.191 115.492 183.43 118.121C180.743 122.133 178.24 123.433 173.378 123.343C170.99 123.299 170.212 123.404 170.926 123.677C171.501 123.896 171.972 124.274 171.972 124.517C171.972 125.296 175.84 126.373 177.758 126.129C178.765 126 180.335 125.508 181.246 125.036ZM64.6496 125.204C65.6037 125.046 66.2825 124.753 66.1581 124.551C66.0337 124.35 66.8227 123.886 67.9114 123.521C69.8818 122.861 69.8735 122.859 66.052 123.076C60.7714 123.377 58.5763 122.691 55.9982 119.935C54.8693 118.727 53.5755 117.026 53.1233 116.155C52.671 115.283 52.2126 114.831 52.1046 115.151C51.9967 115.471 51.6564 115.733 51.3484 115.733C51.0405 115.733 50.757 116.151 50.7185 116.663C50.68 117.175 50.8447 117.593 51.0846 117.593C51.3245 117.593 51.5208 117.907 51.5208 118.291C51.5208 118.675 51.6781 118.989 51.8704 118.989C52.0626 118.989 52.7173 119.927 53.3252 121.073C53.9331 122.219 54.6128 123.044 54.8358 122.906C55.0588 122.768 55.2413 122.854 55.2413 123.096C55.2413 123.339 56.1307 123.969 57.2178 124.496C59.2501 125.482 61.6099 125.707 64.6496 125.204ZM39.2198 118.58C39.4628 118.355 42.4432 116.749 45.8428 115.011C50.6794 112.539 51.9578 111.692 51.7196 111.117C51.5523 110.713 51.3099 110.017 51.1812 109.569C51.0526 109.121 50.6706 108.755 50.3325 108.755C49.6596 108.755 36.7588 114.062 36.2887 114.532C35.9318 114.889 37.8739 118.989 38.3999 118.989C38.6079 118.989 38.9768 118.805 39.2198 118.58ZM200.725 115.205C200.602 114.372 199.39 113.664 194.314 111.466C190.871 109.975 187.775 108.755 187.432 108.755C187.09 108.755 186.524 109.434 186.175 110.265L185.54 111.774L192.359 115.279L199.179 118.784L200.027 117.508C200.494 116.807 200.808 115.77 200.725 115.205ZM43.3753 108.651L47.3352 106.687V102.867C47.3352 100.766 47.1151 98.4677 46.8461 97.7601C46.4974 96.8427 46.5113 95.8305 46.8945 94.2328C47.4953 91.7277 47.1854 89.6826 46.205 89.6826C45.3462 89.6826 43.291 92.1669 42.4065 94.2743C42.0167 95.2028 41.5536 97.0798 41.3773 98.4454L41.0568 100.928L39.9309 99.95C39.3117 99.412 38.0196 98.8461 37.0595 98.6925C36.0442 98.5301 35.3937 98.1926 35.5046 97.8857C35.7656 97.1632 31.948 90.1362 30.9544 89.5104C30.3666 89.1401 30.0028 89.1563 29.5878 89.5715C29.1436 90.0158 29.242 90.6678 30.0455 92.607C31.8384 96.9338 32.0039 97.8972 31.0954 98.7197C30.6508 99.1221 30.0943 99.4401 29.8586 99.4263C29.623 99.4123 28.8215 98.1566 28.0776 96.6353C27.3337 95.1139 26.5444 93.8692 26.3237 93.8692C26.1029 93.8692 25.6774 94.4068 25.3781 95.0638C24.2455 97.5501 26.4327 104.98 29.0102 107.402C30.9159 109.192 34.3864 110.586 36.9806 110.601C38.9254 110.613 40.2124 110.22 43.3753 108.651ZM203.979 109.683C208.72 107.531 210.628 104.829 211.534 98.9862C211.992 96.0388 211.959 95.561 211.249 94.7763C210.201 93.6179 209.814 93.9198 208.481 96.9356C207.314 99.5737 206.308 100.111 205.469 98.5433C205.096 97.8464 205.259 96.9026 206.169 94.4845C208.393 88.5731 206.768 87.5477 203.713 92.9346C202.626 94.8512 201.736 97.0192 201.736 97.7525C201.736 98.7499 201.56 99.0178 201.035 98.8164C200.111 98.4619 198.045 99.2684 196.737 100.494L195.691 101.474V99.7534C195.691 96.6167 192.373 89.2174 190.967 89.2174C189.991 89.2174 189.544 91.434 190.047 93.7804C190.412 95.483 190.405 97.1222 190.022 99.7653C189.731 101.767 189.641 104.187 189.821 105.143C190.128 106.766 190.4 107.002 193.966 108.744C198.365 110.891 200.812 111.12 203.979 109.683ZM39.6868 94.4919C40.0833 90.7888 39.7352 87.9287 38.7705 86.9638C37.6626 85.8556 36.8706 86.9726 36.9107 89.5866C36.9355 91.203 37.3899 97.0676 37.5544 97.896C37.5632 97.936 37.9729 97.8629 38.4669 97.7338C39.1909 97.5445 39.4273 96.9163 39.6868 94.4919ZM199.697 95.7563C199.741 94.8753 199.91 92.9706 200.074 91.5235C200.564 87.1921 198.761 84.5492 197.596 87.8913C197.018 89.5505 196.96 91.5927 197.39 95.1719C197.649 97.3278 197.807 97.6201 198.652 97.4978C199.397 97.39 199.637 96.9914 199.697 95.7563ZM116.051 7.69512C115.756 6.8005 113.839 6.67165 113.839 7.54656C113.839 8.02152 114.259 8.27668 115.041 8.27668C115.794 8.27668 116.171 8.05965 116.051 7.69512Z" fill="#143D46"/>
<path d="M52 115L40 121.5C53.6 142.7 73 130.333 81 121.5L77.5 117.5C62.7 129.1 54.3333 120.667 52 115Z" fill="url(#paint4_linear_48_276)"/>
<path d="M197 121L185.5 114.5C179.5 128.1 166 121.833 160 117L156.5 122.5C173.5 143.5 197 129 197 121Z" fill="url(#paint5_linear_48_276)"/>
<circle cx="89" cy="90" r="5" fill="#FA5A59"/>
<circle cx="149" cy="90" r="5" fill="#FA5A59"/>
<circle cx="85" cy="47" r="4" fill="#FEF8D6"/>
<rect y="58.3412" width="53" height="19.3294" rx="9.66471" fill="#FAFAFA"/>
<ellipse cx="24.6294" cy="58.6529" rx="15.9" ry="14.6529" fill="#FAFAFA"/>
<ellipse cx="11.2588" cy="13.9882" rx="11.2588" ry="13.9882" transform="matrix(-1 0 0 1 202.024 11.7765)" fill="#FAFAFA"/>
<ellipse cx="15.3529" cy="16.7176" rx="15.3529" ry="16.7176" transform="matrix(-1 0 0 1 222.494 7)" fill="#FAFAFA"/>
<rect width="58" height="14" rx="7" transform="matrix(-1 0 0 1 230 30)" fill="#FAFAFA"/>
<circle cx="46" cy="13" r="7" fill="#FAFAFA"/>
<defs>
<linearGradient id="paint0_linear_48_276" x1="73" y1="42" x2="119" y2="178" gradientUnits="userSpaceOnUse">
<stop stop-color="#2DA2D8"/>
<stop offset="0.530005" stop-color="#1969AB"/>
<stop offset="1" stop-color="#073784"/>
</linearGradient>
<linearGradient id="paint1_linear_48_276" x1="97.9999" y1="161" x2="141" y2="161" gradientUnits="userSpaceOnUse">
<stop stop-color="#9DAFC7"/>
<stop offset="1" stop-color="#4F7896"/>
</linearGradient>
<linearGradient id="paint2_linear_48_276" x1="34.5076" y1="118.938" x2="53.3745" y2="118.938" gradientUnits="userSpaceOnUse">
<stop stop-color="#949494"/>
<stop offset="0.5" stop-color="white"/>
<stop offset="1" stop-color="#FAFAFA"/>
</linearGradient>
<linearGradient id="paint3_linear_48_276" x1="186.87" y1="108.842" x2="205.737" y2="108.842" gradientUnits="userSpaceOnUse">
<stop stop-color="#FAFAFA"/>
<stop offset="0.46" stop-color="white"/>
<stop offset="1" stop-color="#949494"/>
</linearGradient>
<linearGradient id="paint4_linear_48_276" x1="65" y1="115" x2="60.5" y2="133.206" gradientUnits="userSpaceOnUse">
<stop stop-color="#3693E3"/>
<stop offset="1" stop-color="#0051AA"/>
</linearGradient>
<linearGradient id="paint5_linear_48_276" x1="177" y1="118" x2="177" y2="128.5" gradientUnits="userSpaceOnUse">
<stop stop-color="#328EDF"/>
<stop offset="1" stop-color="#0355AD"/>
</linearGradient>
</defs>
</svg>
