<svg width="63" height="62" viewBox="0 0 63 62" fill="none" xmlns="http://www.w3.org/2000/svg">
<path d="M62.0837 31C62.0837 48.1208 48.1858 62 31.0418 62C13.8979 62 0 48.1208 0 31C0 13.8792 13.8979 0 31.0418 0C48.1858 0 62.0837 13.8792 62.0837 31Z" fill="#FBCF4D"/>
<path d="M27.398 17.5777C29.1861 13.7065 34.6884 13.7065 36.4764 17.5777L37.2485 19.2493C37.9774 20.8273 39.4735 21.9136 41.1998 22.118L43.0187 22.3334C47.2577 22.8353 48.959 28.0758 45.8231 30.9719L44.4874 32.2054C43.2087 33.3863 42.6362 35.1472 42.9758 36.8543L43.3318 38.6433C44.1642 42.8272 39.7118 46.0649 35.9882 43.9833L34.3769 43.0826C32.8609 42.2352 31.0136 42.2352 29.4975 43.0826L27.8863 43.9833C24.1627 46.0649 19.7102 42.8271 20.5427 38.6433L20.8986 36.8543C21.2383 35.1472 20.6657 33.3863 19.387 32.2054L18.0514 30.9719C14.9155 28.0758 16.6168 22.8353 20.8557 22.3334L22.6747 22.118C24.4009 21.9136 25.8971 20.8273 26.626 19.2492L27.398 17.5777Z" fill="#0D4790"/>
</svg>
