<svg width="134" height="187" viewBox="0 0 134 187" fill="none" xmlns="http://www.w3.org/2000/svg">
<path d="M36.0971 8.34087C50.706 6.58091 66.9089 5.89362 81.3046 6.42328C88.6071 6.69196 97.9449 7.40371 101.603 7.97047C103.024 8.19072 103.138 8.10741 103.142 6.84224C103.146 5.93171 102.75 5.00053 102.285 4.82132C101.828 4.64567 95.1767 3.97746 90.6513 3.65262C73.7592 2.44008 55.7721 2.83409 37.8138 4.81004C31.481 5.50684 30.8515 5.7505 30.8515 7.50503C30.8515 8.48745 31.3873 8.98358 32.2821 8.82984C32.5969 8.77576 34.3136 8.55573 36.0971 8.34087Z" fill="#FE9C07"/>
<path d="M91.9865 78.6896C110.931 75.8264 125.224 59.7938 129.731 36.3527C130.728 31.1639 130.887 29.543 130.889 24.4949C130.89 20.2427 130.843 19.4966 130.462 17.7532C129.596 13.7891 128.116 10.7236 125.922 8.34753C124.591 6.90644 123.288 6.22949 121.849 6.23203C119.618 6.23594 117.608 7.68475 113.322 12.3768C109.19 16.8997 107.115 18.5609 104.883 19.1309L104.004 19.3553L103.908 22.6426C103.836 25.1228 103.869 25.9299 104.041 25.9297C104.167 25.9295 104.951 25.7137 105.783 25.4501C108.846 24.4799 111.422 22.2282 115.141 17.2694C116.228 15.82 117.416 14.387 117.782 14.0851C119.546 12.6266 122.33 12.9991 124.107 14.9314C125.056 15.9647 125.531 16.8929 126.08 18.7911C126.48 20.1782 126.511 20.643 126.5 25.1643C126.49 29.2262 126.419 30.4679 126.072 32.5935C124.59 41.6967 121.577 49.6249 116.977 56.53C113.24 62.1385 109.282 66.1694 104.194 69.5487C101.113 71.5955 96.0024 73.7411 92.7276 74.3632C91.5409 74.5887 91.4265 74.6569 90.8823 75.4642C90.5631 75.9375 89.904 76.8412 89.4176 77.4724C88.0461 79.2518 88.045 79.159 89.4344 79.0164C90.1037 78.9476 91.2521 78.8006 91.9865 78.6896Z" fill="#FE9C07"/>
<path d="M44.3726 77.7114C43.7296 76.9488 42.935 75.9223 42.6069 75.4303C42.0266 74.5603 41.9651 74.5252 40.3609 74.1499C32.2141 72.2436 24.2707 66.6035 18.2985 58.4847C11.5551 49.3175 7.40536 36.829 7.39296 25.6653C7.38417 17.7257 9.19193 13.617 12.8865 13.1798C14.9855 12.9313 16.35 13.8253 18.5557 16.8938C21.7831 21.3838 23.811 23.4249 26.2701 24.6584C27.4691 25.2598 30.01 26.0764 30.1668 25.9107C30.2069 25.8683 30.1842 24.3728 30.1164 22.5872L29.9931 19.3408L29.1684 19.2001C26.3569 18.7203 23.3618 16.1319 19.8433 11.141C18.4232 9.12679 16.8652 7.47002 15.8014 6.84297C15.0136 6.37859 14.739 6.3259 13.1119 6.32697C11.4371 6.32812 11.209 6.3756 10.102 6.9541C6.18381 9.00184 3.82026 14.2563 3.16125 22.3844C2.5393 30.0554 4.66258 41.3025 8.37777 50.0164C14.6985 64.8417 25.0113 74.5193 38.063 77.8733C40.3622 78.4641 43.6006 79.0254 45.0159 79.0783C45.5266 79.0974 45.5079 79.0578 44.3726 77.7114Z" fill="#FE9C07"/>
<g filter="url(#filter0_i_119_185)">
<path d="M73.2399 84.9691C81.2765 82.8408 87.2412 77.3575 91.9645 67.7559C98.3609 54.7535 101.069 39.0097 100.82 16.271L100.761 10.9159L99.7118 10.7822C97.8247 10.5417 89.5941 9.87737 85.501 9.63516C80.2491 9.32439 62.5377 9.32609 56.9841 9.63791C51.6603 9.93683 45.955 10.3589 42.201 10.7316C38.0153 11.1472 34.0645 11.5889 33.5453 11.6995L33.0919 11.796L33.1967 21.1099C33.3566 35.3205 34.1509 43.2573 36.2918 52.0355C37.8862 58.5728 40.719 65.7268 43.7135 70.7785C48.0676 78.1236 53.5855 82.8644 59.966 84.7424C62.294 85.4275 63.8474 85.5847 67.666 85.5216C70.9292 85.4677 71.6132 85.3998 73.2399 84.9691Z" fill="#FBCF4D"/>
</g>
<path d="M66.14 99.8143C67.5563 99.7606 69.2301 99.8022 69.8596 99.9067C70.4891 100.011 71.0248 100.078 71.0502 100.054C71.0755 100.031 71.2755 98.9534 71.4946 97.6599C71.9694 94.8574 72.9705 91.0994 73.6569 89.5431C73.9289 88.9264 74.1515 88.3598 74.1515 88.2839C74.1515 88.208 73.5291 88.2746 72.7685 88.4319C71.8528 88.6212 70.2901 88.7165 68.1429 88.7141C65.0941 88.7105 63.3209 88.5065 59.9956 87.7762L59.4783 87.6626L59.8728 88.4814C60.9309 90.6772 62.7065 97.5486 62.7065 99.4474C62.7065 99.9923 62.8889 100.181 63.2688 100.03C63.4317 99.965 64.7237 99.868 66.14 99.8143Z" fill="#FE9C07"/>
<path d="M71.2813 108.54C72.7375 108.22 73.3128 107.599 73.4929 106.154C73.6634 104.785 73.4154 104.245 72.3386 103.639C71.1736 102.984 69.2692 102.745 66.2354 102.874C63.2926 103 61.5176 103.375 60.8313 104.018C60.4287 104.396 60.3895 104.572 60.4532 105.721C60.5109 106.761 60.6132 107.098 60.9955 107.508C61.6348 108.194 62.4111 108.573 63.5575 108.758C64.8587 108.968 69.9934 108.823 71.2813 108.54Z" fill="#FE9C07"/>
<g filter="url(#filter1_i_119_185)">
<path d="M93.4124 140.299C93.4103 139.51 93.3306 138.53 93.236 138.122C93.0043 137.12 91.8596 135.988 89.9263 134.849C80.0859 129.049 74.2931 122.3 71.8812 113.825C71.5542 112.675 71.2659 111.719 71.2407 111.699C71.2155 111.68 70.5082 111.745 69.6689 111.844C68.8296 111.943 66.8913 111.97 65.3615 111.905L62.5801 111.786L62.3339 112.894C61.7061 115.719 60.1086 119.452 58.4033 122.08C55.6709 126.291 51.9895 129.699 45.6054 133.925C44.1206 134.908 42.6272 136.03 42.2866 136.419C41.3547 137.483 40.7658 138.942 40.6346 140.51L40.5198 141.884L66.9683 141.809L93.4169 141.734L93.4124 140.299Z" fill="#FE9C07"/>
</g>
<path d="M97.7041 160.811C97.6494 154.947 97.5672 149.613 97.5214 148.959C97.3959 147.165 96.7846 146.128 95.42 145.395L94.657 144.985L67.2987 144.933C36.8687 144.876 38.5207 144.81 37.3654 146.129C36.2064 147.453 36.1924 147.619 36.1924 160.129V171.474H66.998H97.8036L97.7041 160.811Z" fill="#FE9C07"/>
<path d="M80.1272 164.76C80.9725 164.374 81.041 163.871 80.98 158.507C80.9134 152.652 80.9814 152.848 78.9078 152.526C78.1597 152.41 73.0086 152.357 65.7175 152.39C54.534 152.44 53.7326 152.466 53.4143 152.785C53.1083 153.092 53.0678 153.626 53.0152 158.045C52.954 163.187 53.0013 163.903 53.4422 164.508C53.7004 164.862 54.155 164.88 65.6 164.985C78.5194 165.104 79.4053 165.09 80.1272 164.76Z" fill="#FBCF4D"/>
<path d="M93.0672 183.523H106.197L106.193 180.989C106.19 179.595 106.1 178.067 105.992 177.594C105.721 176.402 104.968 175.384 104.015 174.922C103.212 174.532 103.125 174.531 66.7785 174.58L30.3471 174.629L29.5541 175.156C29.1175 175.445 28.5858 176.026 28.3709 176.449C27.845 177.482 27.5802 179.778 27.734 181.972L27.8606 183.777L53.8991 183.65C68.2202 183.58 85.8457 183.523 93.0672 183.523Z" fill="#ED6F01"/>
<path d="M25.3698 186.398C24.8228 185.886 24.8104 185.814 24.5553 181.61C24.1694 175.254 24.832 172.981 27.418 171.786C28.1064 171.468 28.7581 171.375 30.7084 171.317L33.1405 171.244L33.147 159.932C33.1506 153.71 33.2285 147.781 33.3198 146.756C33.5872 143.756 34.3065 142.683 36.4107 142.144L37.432 141.882L37.5584 140.241C37.8672 136.231 38.8933 134.75 43.5091 131.652C52.5663 125.572 57.547 119.457 59.3667 112.181L59.6786 110.934L58.9271 110.142C57.9698 109.133 57.5605 107.943 57.4231 105.768C57.2839 103.564 57.6594 102.563 58.9736 101.634C59.4528 101.296 59.8445 100.885 59.844 100.721C59.8434 100.557 59.6699 99.3901 59.4584 98.1278C58.7193 93.7169 57.5472 90.2144 55.8834 87.4456C55.1356 86.201 54.8237 85.8635 54.0639 85.4764C52.7884 84.8267 50.7248 83.5509 49.916 82.9122C49.2673 82.3999 49.1042 82.3684 46.101 82.1754C39.5545 81.7548 34.615 80.4895 29.2295 77.8536C12.7396 69.7829 1.8606 51.1978 0.12226 28.1288C-0.228182 23.4781 0.187072 18.42 1.20971 14.8816C2.33087 11.0024 4.39748 7.3634 6.39154 5.757C8.60409 3.9746 11.7262 2.85584 13.9964 3.03185C16.5733 3.23163 18.0783 4.43863 21.7071 9.21592C24.5311 12.9337 26.4131 14.839 28.0091 15.5961C28.6805 15.9145 29.4229 16.1751 29.659 16.1752C30.0791 16.1754 30.0882 16.129 30.0882 13.9851V11.7947L29.1503 10.8544C28.1219 9.82326 27.802 9.01874 27.8002 7.45956C27.7981 5.48022 28.9442 3.51751 30.4565 2.9108C32.1837 2.21789 42.2803 1.11675 53.8364 0.361C61.2167 -0.121664 80.2986 -0.119985 87.5989 0.363964C94.3276 0.810023 101.84 1.56973 103.082 1.92964C105.385 2.59726 106.773 5.76689 105.995 8.57824C105.771 9.38605 104.843 10.5486 104.278 10.7284C103.935 10.8374 103.908 11.0425 103.908 13.5357V16.2254L104.591 16.1142C106.66 15.7776 108.514 14.1236 111.909 9.58364C114.687 5.86989 116.044 4.515 117.833 3.66807C118.898 3.16378 119.287 3.08165 120.598 3.0848C124.441 3.09403 128.093 5.33863 130.262 9.02325C133.995 15.3655 134.925 23.8938 133.084 34.8926C132.177 40.3115 130.956 44.7192 128.947 49.8357C121.959 67.6272 109.034 79.0046 92.7603 81.6882C91.81 81.845 89.676 82.0612 88.0181 82.1687L85.0038 82.3642L83.4723 83.5785C82.63 84.2463 81.1405 85.2373 80.1623 85.7806L78.3837 86.7685L77.3354 88.9099C75.8424 91.9597 74.8587 95.3123 74.3399 99.1189L74.1013 100.869L75.1531 101.899C76.0387 102.765 76.2426 103.097 76.4432 103.996C76.9162 106.115 76.0228 109.559 74.7902 110.369C74.5394 110.534 74.3431 110.851 74.3447 111.09C74.349 111.766 75.7734 115.831 76.547 117.375C79.2583 122.787 84.0888 127.7 90.7214 131.79C93.331 133.399 94.8871 134.845 95.5574 136.283C96.066 137.374 96.4688 139.443 96.4688 140.964C96.4688 141.496 96.5627 141.873 96.7072 141.922C96.8383 141.966 97.3288 142.1 97.7971 142.221C98.968 142.522 99.9678 143.56 100.359 144.882C100.616 145.749 100.665 147.055 100.666 153.005C100.666 156.904 100.723 162.612 100.792 165.688L100.917 171.283L103.223 171.284C106.121 171.285 106.837 171.478 107.844 172.527C109.218 173.957 109.35 174.644 109.31 180.176C109.291 182.898 109.192 185.18 109.081 185.474C108.647 186.614 111.683 186.528 66.9027 186.668L25.7963 186.797L25.3698 186.398ZM93.0672 183.523H106.197L106.193 180.989C106.19 179.595 106.1 178.067 105.992 177.594C105.721 176.402 104.968 175.384 104.015 174.922C103.212 174.532 103.125 174.531 66.7785 174.58L30.3471 174.63L29.5541 175.156C29.1175 175.445 28.5858 176.026 28.3709 176.449C27.845 177.482 27.5802 179.778 27.734 181.972L27.8606 183.777L53.8991 183.65C68.2202 183.58 85.8457 183.523 93.0672 183.523ZM97.7041 160.811C97.6494 154.947 97.5672 149.613 97.5214 148.959C97.3959 147.165 96.7846 146.128 95.42 145.395L94.657 144.985L67.2987 144.933C36.8688 144.876 38.5207 144.81 37.3654 146.129C36.2064 147.453 36.1925 147.619 36.1925 160.129V171.474H66.998H97.8036L97.7041 160.811ZM53.1391 167.847C51.6539 167.39 50.667 166.235 50.1998 164.406C49.9537 163.443 49.9106 162.277 49.9607 157.933C50.0207 152.723 50.0297 152.619 50.4986 151.68C51.1504 150.375 52.1264 149.737 53.8771 149.47C54.8022 149.33 59.3003 149.283 67.6111 149.328C79.8646 149.394 79.9783 149.398 81.031 149.82C82.2903 150.325 82.9395 150.955 83.5356 152.253C83.9629 153.183 83.975 153.365 83.975 158.851C83.975 164.207 83.9545 164.537 83.5695 165.354C83.0405 166.476 82.4918 167.031 81.418 167.529C80.5529 167.93 80.3673 167.936 67.0938 167.969C59.6975 167.988 53.4179 167.933 53.1391 167.847ZM80.1272 164.76C80.9725 164.374 81.041 163.871 80.98 158.507C80.9134 152.652 80.9814 152.848 78.9078 152.526C78.1597 152.41 73.0086 152.356 65.7175 152.39C54.534 152.44 53.7326 152.466 53.4142 152.785C53.1083 153.092 53.0678 153.626 53.0152 158.045C52.954 163.187 53.0013 163.903 53.4422 164.508C53.7004 164.862 54.155 164.88 65.6 164.985C78.5194 165.104 79.4053 165.09 80.1272 164.76ZM93.4124 140.299C93.4103 139.51 93.3306 138.53 93.236 138.122C93.0043 137.12 91.8596 135.988 89.9263 134.849C80.0859 129.049 74.2931 122.3 71.8812 113.825C71.5542 112.675 71.266 111.719 71.2407 111.699C71.2155 111.68 70.5082 111.745 69.6689 111.844C68.8296 111.943 66.8913 111.97 65.3615 111.905L62.5801 111.786L62.3339 112.894C61.7061 115.719 60.1086 119.452 58.4033 122.08C55.6709 126.291 51.9895 129.699 45.6054 133.925C44.1206 134.908 42.6272 136.03 42.2866 136.419C41.3547 137.483 40.7658 138.942 40.6347 140.51L40.5198 141.884L66.9683 141.809L93.4169 141.734L93.4124 140.299ZM86.1726 137.407C78.469 136.512 72.5001 129.693 70.5016 119.502C70.2696 118.319 70.1494 117.286 70.2343 117.207C70.3192 117.127 70.4225 117.156 70.4638 117.271C70.9335 118.577 74.4243 125.2 75.4959 126.818C78.0914 130.738 81.8177 133.95 86.597 136.387C89.1142 137.671 89.0835 137.744 86.1726 137.407ZM71.2814 108.54C72.7375 108.22 73.3128 107.599 73.4929 106.154C73.6635 104.785 73.4154 104.245 72.3386 103.639C71.1736 102.984 69.2692 102.745 66.2354 102.874C63.2926 103 61.5176 103.375 60.8313 104.018C60.4287 104.396 60.3895 104.572 60.4532 105.721C60.5109 106.761 60.6132 107.098 60.9955 107.508C61.6348 108.194 62.4111 108.573 63.5575 108.758C64.8588 108.968 69.9934 108.823 71.2814 108.54ZM66.14 99.8143C67.5563 99.7606 69.2302 99.8022 69.8596 99.9067C70.4891 100.011 71.0249 100.078 71.0502 100.054C71.0755 100.031 71.2755 98.9534 71.4946 97.6599C71.9694 94.8574 72.9705 91.0994 73.6569 89.5431C73.9289 88.9264 74.1515 88.3598 74.1515 88.2839C74.1515 88.208 73.5292 88.2746 72.7685 88.4319C71.8528 88.6212 70.2901 88.7165 68.1429 88.7141C65.0941 88.7105 63.3209 88.5065 59.9956 87.7762L59.4783 87.6626L59.8728 88.4814C60.9309 90.6772 62.7065 97.5486 62.7065 99.4474C62.7065 99.9923 62.8889 100.181 63.2688 100.03C63.4317 99.965 64.7237 99.868 66.14 99.8143ZM73.2398 84.969C81.2764 82.8408 87.2412 77.3575 91.9645 67.7559C98.3608 54.7535 101.069 39.0097 100.82 16.271L100.761 10.9159L99.7118 10.7822C97.8247 10.5417 89.594 9.87736 85.501 9.63515C80.2491 9.32438 62.5377 9.32609 56.984 9.6379C51.6603 9.93682 45.955 10.3589 42.201 10.7316C38.0152 11.1472 34.0645 11.5889 33.5453 11.6995L33.0918 11.796L33.1966 21.1099C33.3565 35.3205 34.1509 43.2573 36.2918 52.0355C37.8861 58.5728 40.7189 65.7268 43.7135 70.7784C48.0676 78.1236 53.5854 82.8644 59.966 84.7423C62.294 85.4275 63.8474 85.5847 67.666 85.5216C70.9292 85.4677 71.6131 85.3998 73.2398 84.969ZM63.851 81.6922C62.5832 81.4235 60.4484 80.6962 60.1636 80.4358C60.0763 80.3561 60.6772 80.1456 61.4988 79.968C65.614 79.0786 68.7571 78.0672 71.1949 76.848C80.3653 72.2614 88.3434 59.7495 93.0442 42.5823C94.8243 36.0814 96.185 28.7068 97.5228 18.3091C97.9021 15.361 98.4733 20.3175 98.3128 25.1643C98.072 32.4355 96.2561 43.5405 94.0679 51.124C90.5777 63.2196 84.9093 72.5876 77.7792 78.0438C76.1763 79.2705 72.7355 81.0221 71.0041 81.4929C69.4351 81.9195 65.4482 82.0306 63.851 81.6922ZM35.7388 15.0655C35.3314 14.4046 40.5971 13.1571 45.1576 12.8342C46.0494 12.771 48.367 12.5961 50.3079 12.4454C56.2105 11.9871 60.2552 11.8972 63.5645 12.1506C66.6502 12.3869 67.5644 12.5745 66.6885 12.7916C65.8953 12.9882 59.9481 13.4879 53.6567 13.8865C50.3054 14.0989 46.0994 14.4423 44.31 14.6497C40.0371 15.145 35.9112 15.3451 35.7388 15.0655ZM44.3726 77.7114C43.7296 76.9488 42.935 75.9223 42.6069 75.4303C42.0267 74.5603 41.9651 74.5252 40.3609 74.1499C32.2141 72.2436 24.2707 66.6035 18.2985 58.4847C11.5551 49.3175 7.40537 36.829 7.39297 25.6653C7.38417 17.7257 9.19193 13.617 12.8865 13.1798C14.9855 12.9313 16.3501 13.8253 18.5557 16.8938C21.7831 21.3838 23.811 23.4249 26.2701 24.6584C27.4691 25.2598 30.01 26.0764 30.1668 25.9107C30.2069 25.8683 30.1842 24.3728 30.1164 22.5872L29.9931 19.3408L29.1684 19.2001C26.3569 18.7203 23.3618 16.1319 19.8433 11.141C18.4232 9.12679 16.8652 7.47002 15.8014 6.84297C15.0136 6.37859 14.739 6.3259 13.1119 6.32696C11.4371 6.32812 11.209 6.3756 10.102 6.9541C6.18381 9.00184 3.82027 14.2563 3.16125 22.3844C2.53931 30.0554 4.66258 41.3025 8.37778 50.0164C14.6985 64.8417 25.0113 74.5193 38.063 77.8733C40.3622 78.4641 43.6006 79.0254 45.0159 79.0783C45.5266 79.0974 45.5079 79.0578 44.3726 77.7114ZM91.9865 78.6896C110.931 75.8264 125.224 59.7938 129.731 36.3527C130.728 31.1639 130.887 29.543 130.889 24.4949C130.89 20.2427 130.843 19.4966 130.462 17.7532C129.596 13.7891 128.116 10.7235 125.922 8.34752C124.591 6.90644 123.288 6.22949 121.849 6.23202C119.618 6.23593 117.608 7.68474 113.322 12.3768C109.19 16.8997 107.115 18.5609 104.883 19.1309L104.004 19.3553L103.908 22.6426C103.836 25.1228 103.869 25.9299 104.042 25.9297C104.167 25.9295 104.951 25.7137 105.783 25.4501C108.846 24.4799 111.422 22.2282 115.141 17.2694C116.228 15.82 117.416 14.387 117.782 14.0851C119.546 12.6266 122.33 12.9991 124.107 14.9314C125.056 15.9647 125.531 16.8929 126.08 18.7911C126.48 20.1782 126.511 20.643 126.5 25.1643C126.49 29.2262 126.419 30.4679 126.072 32.5935C124.59 41.6967 121.577 49.6248 116.977 56.53C113.24 62.1385 109.282 66.1694 104.194 69.5486C101.113 71.5955 96.0024 73.7411 92.7276 74.3632C91.5409 74.5886 91.4265 74.6569 90.8823 75.4642C90.5632 75.9375 89.9041 76.8412 89.4176 77.4724C88.0461 79.2518 88.0451 79.159 89.4345 79.0164C90.1037 78.9476 91.2521 78.8006 91.9865 78.6896ZM95.5517 70.3723C100.439 68.6134 104.777 65.8012 108.781 61.7945C112.394 58.1802 115.193 54.178 117.748 48.9755C120.674 43.0173 122.089 38.3821 123.179 31.1888C123.687 27.8383 123.884 22.4825 123.568 20.6593C122.986 17.3109 121.381 15.7039 119.561 16.6476C118.913 16.9836 117.948 18.1949 116.408 20.6074C113.69 24.8636 109.799 27.6888 105.208 28.7403L103.742 29.076L103.638 30.4193C103.581 31.1581 103.441 33.0966 103.327 34.727C102.819 41.9655 101.502 49.8884 99.8241 55.7951C98.6428 59.9531 97.2882 63.5129 95.4052 67.4073C94.5216 69.2349 93.7986 70.7625 93.7986 70.8021C93.7986 70.956 94.2096 70.8553 95.5517 70.3723ZM38.9769 69.381C35.1714 61.8044 32.4699 51.3165 31.1591 39.0303C30.917 36.7617 30.7812 35.0635 30.419 29.7751L30.3746 29.1264L28.6579 28.7089C23.8441 27.5383 20.3132 24.8908 17.2549 20.1588C14.887 16.4951 13.9937 15.8425 12.6296 16.7797C9.58384 18.8722 9.30749 26.2241 11.8867 36.5439C15.6667 51.6683 23.837 63.2968 34.4659 68.6799C36.2052 69.5609 38.9074 70.6549 39.3899 70.6735C39.541 70.6793 39.387 70.1978 38.9769 69.381ZM36.0971 8.34086C50.706 6.5809 66.9089 5.89361 81.3046 6.42327C88.6071 6.69195 97.9449 7.4037 101.603 7.97046C103.024 8.19071 103.138 8.1074 103.142 6.84224C103.146 5.9317 102.75 5.00052 102.285 4.82131C101.828 4.64566 95.1767 3.97745 90.6512 3.65261C73.7592 2.44007 55.7721 2.83408 37.8138 4.81003C31.481 5.50683 30.8515 5.75049 30.8515 7.50502C30.8515 8.48744 31.3872 8.98357 32.2821 8.82983C32.5968 8.77575 34.3136 8.55572 36.0971 8.34086Z" fill="#3586B1"/>
<g filter="url(#filter2_d_119_185)">
<path d="M60.9604 23.9034C62.7485 20.0322 68.2508 20.0322 70.0389 23.9034L70.8109 25.575C71.5398 27.153 73.036 28.2393 74.7622 28.4437L76.5812 28.6591C80.8201 29.161 82.5214 34.4015 79.3855 37.2976L78.0498 38.5311C76.7712 39.712 76.1986 41.4729 76.5383 43.18L76.8942 44.969C77.7267 49.1529 73.2742 52.3906 69.5506 50.3091L67.9394 49.4084C66.4233 48.5609 64.576 48.5609 63.0599 49.4084L61.4487 50.3091C57.7251 52.3906 53.2726 49.1529 54.1051 44.969L54.461 43.18C54.8007 41.4729 54.2281 39.712 52.9495 38.5311L51.6138 37.2976C48.4779 34.4015 50.1792 29.161 54.4182 28.6591L56.2371 28.4437C57.9633 28.2393 59.4595 27.153 60.1884 25.575L60.9604 23.9034Z" fill="#FFE28B"/>
<path d="M51.9318 39.6331L52.9495 38.5311L51.9318 39.6331C52.8269 40.4597 53.2276 41.6923 52.9899 42.8873L52.6339 44.6763C51.5517 50.1153 57.3399 54.3243 62.1806 51.6184L63.7919 50.7177C64.8531 50.1244 66.1462 50.1244 67.2074 50.7177L68.8187 51.6184C73.6594 54.3243 79.4476 50.1153 78.3654 44.6763L78.0094 42.8873C77.7717 41.6923 78.1725 40.4597 79.0675 39.6331L80.4032 38.3996C84.4798 34.6347 82.2682 27.822 76.7575 27.1695L74.9386 26.9541C73.7302 26.811 72.6829 26.0506 72.1727 24.946L71.4006 23.2745C69.0762 18.2418 61.9231 18.2418 59.5987 23.2745L58.8266 24.946C58.3164 26.0506 57.2691 26.811 56.0607 26.9541L56.2371 28.4437L56.0607 26.9541L54.2418 27.1695C48.7311 27.822 46.5195 34.6347 50.5961 38.3996L51.9318 39.6331Z" stroke="#FE9C07" stroke-width="3"/>
</g>
<defs>
<filter id="filter0_i_119_185" x="33.0919" y="9.40306" width="67.7434" height="76.1313" filterUnits="userSpaceOnUse" color-interpolation-filters="sRGB">
<feFlood flood-opacity="0" result="BackgroundImageFix"/>
<feBlend mode="normal" in="SourceGraphic" in2="BackgroundImageFix" result="shape"/>
<feColorMatrix in="SourceAlpha" type="matrix" values="0 0 0 0 0 0 0 0 0 0 0 0 0 0 0 0 0 0 127 0" result="hardAlpha"/>
<feOffset dx="-5" dy="-5"/>
<feComposite in2="hardAlpha" operator="arithmetic" k2="-1" k3="1"/>
<feColorMatrix type="matrix" values="0 0 0 0 0.929412 0 0 0 0 0.435294 0 0 0 0 0.00392157 0 0 0 0.42 0"/>
<feBlend mode="normal" in2="shape" result="effect1_innerShadow_119_185"/>
</filter>
<filter id="filter1_i_119_185" x="40.5198" y="111.696" width="52.8971" height="30.1882" filterUnits="userSpaceOnUse" color-interpolation-filters="sRGB">
<feFlood flood-opacity="0" result="BackgroundImageFix"/>
<feBlend mode="normal" in="SourceGraphic" in2="BackgroundImageFix" result="shape"/>
<feColorMatrix in="SourceAlpha" type="matrix" values="0 0 0 0 0 0 0 0 0 0 0 0 0 0 0 0 0 0 127 0" result="hardAlpha"/>
<feOffset dx="-3" dy="-2"/>
<feComposite in2="hardAlpha" operator="arithmetic" k2="-1" k3="1"/>
<feColorMatrix type="matrix" values="0 0 0 0 0.929412 0 0 0 0 0.435294 0 0 0 0 0.00392157 0 0 0 0.63 0"/>
<feBlend mode="normal" in2="shape" result="effect1_innerShadow_119_185"/>
</filter>
<filter id="filter2_d_119_185" x="46.9963" y="18" width="40.0066" height="38.9651" filterUnits="userSpaceOnUse" color-interpolation-filters="sRGB">
<feFlood flood-opacity="0" result="BackgroundImageFix"/>
<feColorMatrix in="SourceAlpha" type="matrix" values="0 0 0 0 0 0 0 0 0 0 0 0 0 0 0 0 0 0 127 0" result="hardAlpha"/>
<feOffset dx="3" dy="3"/>
<feComposite in2="hardAlpha" operator="out"/>
<feColorMatrix type="matrix" values="0 0 0 0 0.207843 0 0 0 0 0.52549 0 0 0 0 0.694118 0 0 0 1 0"/>
<feBlend mode="normal" in2="BackgroundImageFix" result="effect1_dropShadow_119_185"/>
<feBlend mode="normal" in="SourceGraphic" in2="effect1_dropShadow_119_185" result="shape"/>
</filter>
</defs>
</svg>
