<svg width="185" height="139" viewBox="0 0 185 139" fill="none" xmlns="http://www.w3.org/2000/svg">
<path d="M68.0974 138.284C64.4213 137.711 60.6638 136.834 60.6677 136.55C60.6744 136.082 60.9337 135.849 63.9396 133.615C69.2572 129.663 71.4785 128.451 74.7156 127.736C77.9028 127.032 81.6385 127.762 85.0725 129.762L86.628 130.667L85.8042 131.807C85.351 132.434 84.2242 133.656 83.3001 134.522C79.5186 138.066 74.5669 139.291 68.0974 138.284ZM108.117 138.032C104.37 137.196 100.967 134.79 98.9276 131.535L98.2139 130.396L98.7787 130.031C99.0893 129.83 100.238 129.245 101.331 128.731C104.042 127.455 107.157 127.089 110.117 127.697C113.408 128.373 118.036 130.807 121.392 133.629C123.022 134.999 124.416 136.386 124.416 136.638C124.416 136.711 122.687 137.102 120.573 137.507C116.009 138.383 110.693 138.607 108.117 138.032ZM52.8523 131.974C51.3776 131.746 42.6255 129.457 42.289 129.211C42.0404 129.029 43.5618 127.731 45.6573 126.337C48.3362 124.554 50.9759 123.209 53.7343 122.222C55.537 121.578 56.0566 121.504 58.648 121.523C61.0622 121.542 61.885 121.656 63.5786 122.208C65.9458 122.98 68.4753 124.639 68.4753 125.421C68.4753 126.25 65.3163 129.154 63.2594 130.216C60.1662 131.812 56.173 132.487 52.8523 131.974ZM91.3158 131.632C88.3747 130.756 87.9979 126.142 90.7733 124.99C91.9513 124.502 92.8178 124.537 94.0407 125.125C95.3655 125.762 95.9416 126.74 95.9416 128.352C95.9416 129.41 95.8137 129.763 95.1649 130.497C94.7292 130.99 93.9825 131.488 93.464 131.631C92.4059 131.923 92.2952 131.923 91.3158 131.632ZM124.401 131.311C120.918 130.337 115.877 126.221 116.426 124.8C116.595 124.363 120.261 122.342 121.878 121.793C125.887 120.434 132.204 121.814 138.062 125.329C140.333 126.691 142.638 128.556 142.441 128.871C142.275 129.138 139.856 129.991 137.015 130.783C134.915 131.369 134.064 131.462 130.085 131.542C126.907 131.605 125.206 131.536 124.401 131.311ZM76.9135 124.43C73.6748 123.318 70.897 120.821 67.8622 116.294C66.1974 113.811 63.5348 108.359 63.7433 107.86C63.877 107.54 67.6724 108.35 70.7596 109.357C78.9742 112.036 83.3388 116.567 83.9855 123.087L84.1635 124.88L81.1701 124.872C79.0016 124.866 77.8286 124.744 76.9135 124.43ZM100.836 123.106C101.183 119.539 102.662 116.455 105.221 113.962C106.747 112.475 108.535 111.383 111.568 110.084C115.044 108.596 121.14 106.983 121.14 107.552C121.14 107.95 118.255 114.2 117.286 115.901C115.252 119.472 112.811 121.832 109.675 123.259C107.407 124.29 106.044 124.609 103.07 124.803L100.656 124.961L100.836 123.106ZM39.2452 122.624C35.1864 121.619 29.109 118.618 26.835 116.496C26.4538 116.14 26.142 115.769 26.142 115.671C26.142 115.386 29.9079 113.945 32.083 113.397C37.9842 111.911 43.052 112.13 47.0567 114.044C48.6994 114.829 51.7342 117.724 51.9944 118.754C52.1487 119.365 52.0505 119.574 51.3166 120.201C49.4311 121.811 45.4232 123.135 42.521 123.106C41.7587 123.098 40.2846 122.881 39.2452 122.624ZM138.88 122.506C137.313 122.167 135.405 121.315 133.689 120.187C132.326 119.291 132.411 118.669 134.144 116.864C137.13 113.755 140.124 112.379 144.323 112.186C147.492 112.041 150.438 112.57 155.05 114.113C156.703 114.666 158.254 115.118 158.497 115.118C159.226 115.118 158.994 115.827 158.119 116.277C157.668 116.508 156.449 117.288 155.41 118.01C151.741 120.557 148.027 122.083 144.209 122.61C141.79 122.944 140.821 122.925 138.88 122.506ZM59.2779 119.302C57.1915 118.602 53.8918 115.694 52.5418 113.366C51.1282 110.929 50.7757 109.153 50.646 103.813C50.5304 99.0527 50.8657 94.5934 51.3392 94.5934C51.6146 94.5934 53.9659 96.6984 55.4911 98.3105C58.2444 101.221 60.5556 104.821 61.5349 107.724C62.0074 109.125 62.1138 114.442 61.6955 115.744C61.4043 116.651 60.272 119.351 60.1331 119.47C60.0785 119.517 59.6937 119.441 59.2779 119.302ZM124.445 119.066C122.819 114.749 122.777 114.563 122.806 111.739C122.829 109.45 122.945 108.675 123.494 107.141C124.36 104.723 125.611 102.53 127.404 100.291C128.994 98.3057 132.883 94.5934 133.374 94.5934C133.895 94.5934 134.029 95.7725 134.166 101.592C134.319 108.022 134.186 108.978 132.724 111.99C131.063 115.413 128.442 118.085 125.608 119.246C124.685 119.624 124.653 119.619 124.445 119.066ZM27.1499 111.111C23.331 110.091 18.7853 107.46 15.7769 104.526C14.0753 102.867 12.6373 101.156 12.8147 101.003C13.1618 100.702 18.5136 100.023 21.3898 99.9159C24.0379 99.8169 25.2552 99.882 26.6923 100.2C31.2708 101.211 35.7251 104.365 37.2306 107.66C38.0924 109.546 38.0086 109.692 35.5284 110.627C32.6732 111.703 29.9576 111.86 27.1499 111.111ZM151.378 111.092C150.754 110.973 149.525 110.574 148.645 110.206C147.091 109.554 147.051 109.514 147.202 108.763C147.462 107.471 148.892 105.394 150.674 103.72C152.603 101.908 155.215 100.537 157.535 100.119C159.773 99.716 165.962 99.7917 169.319 100.263L172.266 100.677L171.926 101.327C171.739 101.685 171.259 102.216 170.86 102.508C170.461 102.8 169.15 103.891 167.947 104.933C161.784 110.271 156.792 112.126 151.378 111.092ZM41.0555 109.257C39.094 107.144 37.8566 103.915 37.5681 100.157C37.2936 96.5823 38.3173 92.4766 40.7956 87.2125C41.5367 85.6384 42.2014 84.3461 42.2728 84.3407C42.4022 84.3308 42.6179 84.7109 45.199 89.4971C48.2628 95.1787 48.7074 101.655 46.3558 106.348C45.5751 107.906 43.2449 110.363 42.5476 110.363C42.2911 110.363 41.6196 109.865 41.0555 109.257ZM140.532 108.698C137.643 105.047 137.015 103.353 137.015 99.2186C137.015 96.3138 137.513 94.1056 139.046 90.213C140.089 87.5635 141.991 84.0464 142.46 83.8995C142.711 83.821 145.607 90.3735 146.302 92.5909C146.779 94.1132 147.347 97.8538 147.342 99.4445C147.336 101.525 146.751 104.115 145.86 106.007C145.148 107.519 142.71 110.363 142.126 110.363C141.974 110.363 141.256 109.614 140.532 108.698ZM28.3309 96.6519C26.9441 93.761 26.394 91.7867 26.394 89.6999C26.394 86.5837 28.0205 82.1766 30.7249 77.9651C32.3442 75.4432 34.1606 73.0671 34.4688 73.0671C35.1992 73.0671 37.2023 80.6735 37.4021 84.2057C37.6881 89.2599 36.2951 93.2973 33.2199 96.327C32.3013 97.232 31.0882 98.223 30.5241 98.5292L29.4986 99.0858L28.3309 96.6519ZM153.876 98.1048C152.382 97.3151 150.216 94.7654 149.126 92.5146C147.809 89.795 147.228 86.904 147.442 84.1375C147.701 80.7833 149.266 74.3622 150.142 73.0601C150.542 72.4648 150.552 72.4751 152.894 75.9522C158.077 83.6444 159.388 88.5338 157.689 93.8424C157.03 95.9023 155.652 98.4529 155.158 98.5264C154.95 98.5573 154.373 98.3676 153.876 98.1048ZM18.822 98.0824C15.6481 97.6182 12.6345 95.8897 9.41642 92.6878C7.34666 90.6283 3.56725 85.7049 3.32739 84.7556L3.15682 84.0805H5.14362C9.04526 84.0805 13.9494 84.9678 17.1196 86.2474C20.6739 87.682 23.2989 90.0094 24.8624 93.1124C25.78 94.9336 26.3946 97.1792 26.065 97.5066C25.8941 97.6764 21.4142 98.355 20.7243 98.3156C20.4472 98.2998 19.5911 98.1948 18.822 98.0824ZM161.205 97.9524C160.859 97.8911 160.136 97.721 159.599 97.5744L158.623 97.3078L158.777 96.1383C159.033 94.2085 160.608 91.4495 162.598 89.4468C165.471 86.5561 169.304 84.9675 174.904 84.3472C177.684 84.0394 181.618 83.993 181.613 84.2682C181.607 84.6283 180.445 86.4728 178.97 88.4609C176.004 92.4605 171.739 96.0834 168.509 97.3484C167.488 97.7479 166.439 97.9114 164.482 97.9762C163.026 98.0244 161.552 98.0137 161.205 97.9524ZM14.8027 83.5734C13.1435 83.2299 10.359 81.7775 8.6291 80.3532C6.16615 78.3253 2.9148 74.1961 1.32938 71.0825C0.571331 69.5937 -0.120021 67.7825 0.0175978 67.6458C0.183188 67.4813 8.88435 69.2889 10.3364 69.7894C14.8093 71.3313 18.2027 74.1966 20.009 77.9568C20.8008 79.6051 21.778 83.2424 21.5026 83.516C21.2592 83.7579 15.9146 83.8036 14.8027 83.5734ZM163.662 83.4398C163.008 82.7692 164.048 78.8544 165.534 76.3966C166.592 74.648 169.295 72.1384 171.217 71.1205C174.701 69.276 184.892 66.7711 184.892 67.7592C184.892 68.2153 182.643 72.3596 181.262 74.4471C179.142 77.6539 175.379 81.2719 172.898 82.4899C171.017 83.4137 170.946 83.4272 167.422 83.5296C165.458 83.5866 163.766 83.5462 163.662 83.4398ZM22.4993 79.4044C22.4023 79.0207 22.0264 78.0855 21.6638 77.3262C21.0522 76.0452 21.004 75.6928 20.9963 72.4413C20.9887 69.1051 21.025 68.846 21.7578 67.0389C22.7045 64.7048 24.8731 61.3521 27.2095 58.6106C28.93 56.5919 30.8327 54.8653 31.0734 55.1043C31.6734 55.7004 32.5948 64.601 32.3527 67.4621C31.8846 72.9928 27.5639 79.0546 23.4638 79.9331C22.7524 80.0856 22.6583 80.034 22.4993 79.4044ZM160.45 79.4568C158.599 78.4905 155.944 76.1339 154.902 74.5326C152.547 70.9129 151.936 66.2199 152.905 59.1751C153.323 56.1281 153.662 54.7948 154.018 54.7948C154.203 54.7948 155.116 55.6114 156.046 56.6095C159.998 60.8482 162.787 65.388 163.62 68.937C164.184 71.3403 163.975 74.5526 163.087 77.1349C162.72 78.202 162.231 79.2942 162.002 79.562C161.589 80.0427 161.569 80.0414 160.45 79.4568ZM14.0385 68.8535C11.3357 67.8834 10.0798 67.0788 8.23398 65.1346C5.76435 62.5333 3.93968 58.6449 3.07007 54.1301C2.69119 52.1631 2.28799 46.785 2.5194 46.785C2.79841 46.785 5.82788 48.5695 7.91475 49.9632C12.4155 52.969 15.1475 56.2181 16.4834 60.1537C17.3478 62.7001 17.4537 66.1672 16.7306 68.2487C16.4795 68.9714 16.1982 69.5565 16.1054 69.5488C16.0126 69.5412 15.0825 69.2282 14.0385 68.8535ZM168.171 68.2487C168.084 67.6636 167.903 66.4527 167.769 65.5579C167.012 60.5038 169.961 54.9091 175.537 50.8174C177.215 49.5863 181.99 46.5347 182.239 46.5347C182.312 46.5347 182.372 47.126 182.371 47.8488C182.37 51.4757 180.999 58.0525 179.723 60.5633C177.591 64.7549 173.968 68.0042 170.393 68.929C168.363 69.4542 168.35 69.4502 168.171 68.2487ZM18.1142 59.2483C17.6094 57.0763 17.4901 54.5266 17.8178 52.9175C18.5644 49.2514 21.2032 45.4533 25.4052 41.9963C28.1054 39.7749 31.0415 37.774 31.6009 37.774C32.3798 37.774 31.9086 43.8598 30.7907 48.2373C29.2017 54.4595 26.2768 57.9533 21.0074 59.9235C18.6053 60.8216 18.4725 60.7906 18.1142 59.2483ZM164.607 60.063C161.565 59.3093 158.107 56.6681 156.151 53.6056C154.559 51.1119 153.251 45.7063 152.97 40.4648C152.836 37.9498 152.868 37.5237 153.19 37.5237C154.08 37.5237 158.36 40.716 161.543 43.7539C166.079 48.0826 167.732 52.1494 167.044 57.2853C166.879 58.5167 166.676 59.6991 166.593 59.9128C166.434 60.3247 165.844 60.3694 164.607 60.063ZM13.8828 49.8342C9.49798 46.3913 7.38096 41.0924 8.02965 35.1837C8.42408 31.591 9.62014 26.2662 10.2575 25.2652C10.5974 24.7315 11.4445 25.5821 13.6734 28.6952C15.7688 31.6219 17.8253 35.4539 18.4785 37.6488C19.1358 39.8579 19.0854 42.9588 18.3555 45.2092C17.742 47.101 15.8842 50.5704 15.4043 50.7208C15.2501 50.7692 14.5654 50.3701 13.8828 49.8342ZM168.486 49.4758C166.281 46.4906 165.381 41.4646 166.373 37.6803C167.176 34.6182 171.046 28.049 173.369 25.8057L174.487 24.7256L175.019 26.1811C176.216 29.4549 176.83 33.0744 176.824 36.8207C176.816 41.1758 175.872 44.2239 173.623 47.1458C172.555 48.533 170.2 50.5396 169.639 50.5396C169.437 50.5396 168.919 50.0608 168.486 49.4758ZM23.1212 36.2467C23.1231 35.2281 23.276 33.8316 23.4616 33.1433C24.62 28.8464 28.3239 24.8816 33.5755 22.3173C35.9164 21.1742 41.7082 19.1115 41.9375 19.3392C42.4274 19.8259 39.7723 26.7786 37.8609 30.0145C34.877 35.0657 30.9739 37.4967 25.1286 37.9445L23.1182 38.0985L23.1212 36.2467ZM157.3 37.609C151.766 36.4356 147.427 32.1724 144.602 25.1335C143.587 22.6045 142.643 19.334 142.865 19.1135C143.215 18.7665 149.981 21.3374 152.89 22.9227C157.362 25.3594 160.027 28.6154 161.242 33.1264C161.499 34.0807 161.709 35.5169 161.709 36.3178V37.774L159.757 37.7449C158.682 37.7289 157.577 37.6678 157.3 37.609ZM19.4009 29.9004C17.3282 27.5614 15.8107 23.5661 15.8107 20.4482C15.8107 18.3659 16.258 15.7508 16.9721 13.6584C17.7767 11.3007 20.9064 4.74777 21.2283 4.74659C21.5662 4.74564 24.4362 10.8598 25.2756 13.3691C26.0135 15.5751 26.4934 19.6196 26.2557 21.6292C26.0459 23.4031 25.4621 25.1432 24.4833 26.9127C23.448 28.7842 21.4711 31.0157 20.8484 31.0157C20.5958 31.0157 19.9445 30.5138 19.4009 29.9004ZM162.261 29.4186C159.435 26.4952 158.558 23.6653 158.737 18.0494C158.831 15.0946 158.903 14.7125 159.753 12.6182C161.355 8.67433 162.75 5.62341 163.159 5.1696C163.537 4.74973 163.578 4.74973 164.046 5.1696C165.371 6.357 167.86 12.7184 168.67 16.9864C169.188 19.7203 169.025 22.8119 168.252 24.901C167.626 26.5904 164.775 30.8503 164.194 30.9622C163.99 31.0015 163.12 30.307 162.261 29.4186ZM28.3259 20.5863C28.0568 20.319 28.1322 16.3957 28.4343 14.9459C28.9543 12.4508 30.3187 10.0655 32.411 7.99368C35.0915 5.33951 41.0885 1.47346 44.2369 0.370066L45.2928 0L45.2871 0.927539C45.2723 3.43368 43.8131 8.19123 41.9316 11.8673C40.2803 15.0937 37.2652 18.2552 34.7092 19.4404C32.4018 20.5104 28.885 21.1417 28.3259 20.5863ZM153.394 20.3599C148.168 19.2296 144.438 15.7376 142.051 9.73971C141.489 8.32564 139.535 1.01948 139.535 0.329466C139.535 -0.19567 140.119 -0.0124449 143.189 1.47555C149.045 4.31438 153.309 7.84801 155.003 11.2661C156.137 13.5545 156.713 16.2143 156.617 18.7199L156.544 20.628L155.788 20.6711C155.372 20.6947 154.295 20.5547 153.394 20.3599Z" fill="white"/>
</svg>
