<svg width="64" height="64" viewBox="0 0 64 64" fill="none" xmlns="http://www.w3.org/2000/svg">
<circle cx="32" cy="32" r="32" fill="#E45993"/>
<path d="M21.8535 36.344C20.9148 36.344 20.1468 36.0027 19.5495 35.32C18.9948 34.6373 18.7175 33.72 18.7175 32.568C18.7175 31.4587 18.9948 30.5413 19.5495 29.816C20.1468 29.0907 20.9148 28.728 21.8535 28.728H42.0775C42.8882 28.728 43.6135 29.0907 44.2535 29.816C44.9362 30.5413 45.2775 31.4587 45.2775 32.568C45.2775 33.72 44.9362 34.6373 44.2535 35.32C43.6135 36.0027 42.8882 36.344 42.0775 36.344H21.8535ZM31.7735 47.672C30.6642 47.672 29.6615 47.2667 28.7655 46.456C27.9122 45.6027 27.4855 44.6427 27.4855 43.576C27.4855 42.3813 27.9122 41.4213 28.7655 40.696C29.6615 39.928 30.6642 39.544 31.7735 39.544C32.7975 39.544 33.7575 39.928 34.6535 40.696C35.5495 41.4213 35.9975 42.3813 35.9975 43.576C35.9975 44.6427 35.5495 45.6027 34.6535 46.456C33.7575 47.2667 32.7975 47.672 31.7735 47.672ZM31.7735 25.528C30.6642 25.528 29.6615 25.144 28.7655 24.376C27.9122 23.608 27.4855 22.648 27.4855 21.496C27.4855 20.3867 27.9122 19.4267 28.7655 18.616C29.6615 17.8053 30.6642 17.4 31.7735 17.4C32.7975 17.4 33.7575 17.8053 34.6535 18.616C35.5495 19.4267 35.9975 20.3867 35.9975 21.496C35.9975 22.648 35.5495 23.608 34.6535 24.376C33.7575 25.144 32.7975 25.528 31.7735 25.528Z" fill="#FAFAFA"/>
</svg>
