<svg width="64" height="81" viewBox="0 0 64 81" fill="none" xmlns="http://www.w3.org/2000/svg">
<circle cx="32" cy="47" r="32" fill="#E45993"/>
<path d="M21.8535 51.344C20.9148 51.344 20.1468 51.0027 19.5495 50.32C18.9948 49.6373 18.7175 48.72 18.7175 47.568C18.7175 46.4587 18.9948 45.5413 19.5495 44.816C20.1468 44.0907 20.9148 43.728 21.8535 43.728H42.0775C42.8882 43.728 43.6135 44.0907 44.2535 44.816C44.9362 45.5413 45.2775 46.4587 45.2775 47.568C45.2775 48.72 44.9362 49.6373 44.2535 50.32C43.6135 51.0027 42.8882 51.344 42.0775 51.344H21.8535ZM31.7735 62.672C30.6642 62.672 29.6615 62.2667 28.7655 61.456C27.9122 60.6027 27.4855 59.6427 27.4855 58.576C27.4855 57.3813 27.9122 56.4213 28.7655 55.696C29.6615 54.928 30.6642 54.544 31.7735 54.544C32.7975 54.544 33.7575 54.928 34.6535 55.696C35.5495 56.4213 35.9975 57.3813 35.9975 58.576C35.9975 59.6427 35.5495 60.6027 34.6535 61.456C33.7575 62.2667 32.7975 62.672 31.7735 62.672ZM31.7735 40.528C30.6642 40.528 29.6615 40.144 28.7655 39.376C27.9122 38.608 27.4855 37.648 27.4855 36.496C27.4855 35.3867 27.9122 34.4267 28.7655 33.616C29.6615 32.8053 30.6642 32.4 31.7735 32.4C32.7975 32.4 33.7575 32.8053 34.6535 33.616C35.5495 34.4267 35.9975 35.3867 35.9975 36.496C35.9975 37.648 35.5495 38.608 34.6535 39.376C33.7575 40.144 32.7975 40.528 31.7735 40.528Z" fill="#FAFAFA"/>
</svg>
