<svg width="64" height="64" viewBox="0 0 64 64" fill="none" xmlns="http://www.w3.org/2000/svg">
<circle cx="32" cy="32" r="32" fill="#0D4790"/>
<path d="M26.159 44.344C25.4763 44.344 24.7723 44.1093 24.047 43.64C23.3643 43.1707 22.767 42.5733 22.255 41.848C21.7857 41.1227 21.551 40.3973 21.551 39.672C21.551 38.9467 21.807 38.328 22.319 37.816L27.375 33.4L22.383 29.112C21.9137 28.6427 21.679 28.024 21.679 27.256C21.679 26.104 22.1483 25.0587 23.087 24.12C24.0683 23.1387 25.1137 22.648 26.223 22.648C26.9483 22.648 27.5883 22.8827 28.143 23.352L32.431 27.704L36.783 23.352C37.2523 22.8827 37.871 22.648 38.639 22.648C39.791 22.648 40.8363 23.1387 41.775 24.12C42.7563 25.0587 43.247 26.0827 43.247 27.192C43.247 28.0027 43.0123 28.6427 42.543 29.112L37.551 33.4L42.607 37.816C43.119 38.328 43.375 38.968 43.375 39.736C43.375 40.4613 43.1403 41.1867 42.671 41.912C42.2017 42.5947 41.6043 43.1707 40.879 43.64C40.1963 44.1093 39.471 44.344 38.703 44.344C37.9777 44.344 37.359 44.088 36.847 43.576L32.431 39.16L28.079 43.576C27.567 44.088 26.927 44.344 26.159 44.344Z" fill="#FAFAFA"/>
</svg>
