<svg width="64" height="81" viewBox="0 0 64 81" fill="none" xmlns="http://www.w3.org/2000/svg">
<circle cx="32" cy="47" r="32" fill="#0D4790"/>
<path d="M26.159 59.344C25.4763 59.344 24.7723 59.1093 24.047 58.64C23.3643 58.1707 22.767 57.5733 22.255 56.848C21.7857 56.1227 21.551 55.3973 21.551 54.672C21.551 53.9467 21.807 53.328 22.319 52.816L27.375 48.4L22.383 44.112C21.9137 43.6427 21.679 43.024 21.679 42.256C21.679 41.104 22.1483 40.0587 23.087 39.12C24.0683 38.1387 25.1137 37.648 26.223 37.648C26.9483 37.648 27.5883 37.8827 28.143 38.352L32.431 42.704L36.783 38.352C37.2523 37.8827 37.871 37.648 38.639 37.648C39.791 37.648 40.8363 38.1387 41.775 39.12C42.7563 40.0587 43.247 41.0827 43.247 42.192C43.247 43.0027 43.0123 43.6427 42.543 44.112L37.551 48.4L42.607 52.816C43.119 53.328 43.375 53.968 43.375 54.736C43.375 55.4613 43.1403 56.1867 42.671 56.912C42.2017 57.5947 41.6043 58.1707 40.879 58.64C40.1963 59.1093 39.471 59.344 38.703 59.344C37.9777 59.344 37.359 59.088 36.847 58.576L32.431 54.16L28.079 58.576C27.567 59.088 26.927 59.344 26.159 59.344Z" fill="#FAFAFA"/>
</svg>
