<svg width="64" height="64" viewBox="0 0 64 64" fill="none" xmlns="http://www.w3.org/2000/svg">
<circle cx="32" cy="32" r="32" fill="#ED6F01"/>
<path d="M32.0295 46.072C30.8775 46.072 29.8962 45.7947 29.0855 45.24C28.3175 44.6853 27.9335 43.96 27.9335 43.064V36.856H21.7255C20.8295 36.856 20.1042 36.4933 19.5495 35.768C18.9948 35 18.7175 34.0187 18.7175 32.824C18.7175 31.672 18.9948 30.712 19.5495 29.944C20.1042 29.1333 20.8295 28.728 21.7255 28.728H27.9335V22.584C27.9335 21.816 28.3175 21.112 29.0855 20.472C29.8962 19.832 30.8775 19.512 32.0295 19.512C33.2668 19.512 34.2482 19.832 34.9735 20.472C35.6988 21.112 36.0615 21.816 36.0615 22.584V28.728H42.2055C42.9735 28.728 43.6775 29.1333 44.3175 29.944C44.9575 30.712 45.2775 31.672 45.2775 32.824C45.2775 34.0187 44.9575 35 44.3175 35.768C43.6775 36.4933 42.9735 36.856 42.2055 36.856H36.0615V43.064C36.0615 43.96 35.6988 44.6853 34.9735 45.24C34.2482 45.7947 33.2668 46.072 32.0295 46.072Z" fill="#FAFAFA"/>
</svg>
