<svg width="64" height="81" viewBox="0 0 64 81" fill="none" xmlns="http://www.w3.org/2000/svg">
<circle cx="32" cy="47" r="32" fill="#ED6F01"/>
<path d="M32.0295 61.072C30.8775 61.072 29.8962 60.7947 29.0855 60.24C28.3175 59.6853 27.9335 58.96 27.9335 58.064V51.856H21.7255C20.8295 51.856 20.1042 51.4933 19.5495 50.768C18.9948 50 18.7175 49.0187 18.7175 47.824C18.7175 46.672 18.9948 45.712 19.5495 44.944C20.1042 44.1333 20.8295 43.728 21.7255 43.728H27.9335V37.584C27.9335 36.816 28.3175 36.112 29.0855 35.472C29.8962 34.832 30.8775 34.512 32.0295 34.512C33.2668 34.512 34.2482 34.832 34.9735 35.472C35.6988 36.112 36.0615 36.816 36.0615 37.584V43.728H42.2055C42.9735 43.728 43.6775 44.1333 44.3175 44.944C44.9575 45.712 45.2775 46.672 45.2775 47.824C45.2775 49.0187 44.9575 50 44.3175 50.768C43.6775 51.4933 42.9735 51.856 42.2055 51.856H36.0615V58.064C36.0615 58.96 35.6988 59.6853 34.9735 60.24C34.2482 60.7947 33.2668 61.072 32.0295 61.072Z" fill="#FAFAFA"/>
</svg>
